<svg width="134" height="26" viewBox="0 0 134 26" fill="none" xmlns="http://www.w3.org/2000/svg">
<g clip-path="url(#clip0_82_83)">
<path d="M47.7319 16.7933C47.8551 16.7031 47.9604 16.6596 48.0551 16.6596C48.1457 16.6596 48.2224 16.6999 48.2836 16.7845L49.1726 18.2705C49.2403 18.3431 49.2721 18.4156 49.2721 18.4881C49.2721 18.5776 49.2052 18.6735 49.073 18.7775C48.5449 19.1627 47.9727 19.4617 47.3474 19.6704C46.7254 19.8783 46.0267 19.9831 45.2578 19.9831C44.0342 19.9831 42.9045 19.6849 41.8687 19.0901C40.8329 18.4938 40.0109 17.6879 39.4069 16.6684C38.802 15.6482 38.5 14.5328 38.5 13.3272C38.5 12.1192 38.802 11.0094 39.4069 9.9956C40.0109 8.9818 40.8329 8.1791 41.8687 7.5908C42.9045 7.0025 44.0342 6.70758 45.2578 6.70758C46.0267 6.70758 46.7254 6.81154 47.3474 7.017C47.9727 7.2201 48.5538 7.5183 49.0909 7.9124C49.1938 7.9962 49.246 8.0889 49.246 8.1936C49.246 8.2541 49.2313 8.3032 49.1995 8.3468L48.2657 9.9029C48.2102 9.9755 48.14 10.0134 48.0551 10.0134C47.9694 10.0134 47.8723 9.9787 47.7702 9.9118C47.3294 9.6418 46.9132 9.4396 46.523 9.3122C46.1328 9.1817 45.71 9.118 45.2578 9.118C44.4807 9.118 43.7763 9.3034 43.1421 9.6773C42.5111 10.0504 42.0124 10.5606 41.6483 11.2037C41.2843 11.8468 41.1022 12.5543 41.1022 13.3272C41.1022 14.0984 41.2843 14.8141 41.6483 15.4685C42.0124 16.1236 42.5111 16.6418 43.1421 17.0246C43.7763 17.4074 44.4807 17.6009 45.2578 17.6009C45.7157 17.6009 46.1589 17.5259 46.5875 17.3784C47.016 17.2301 47.3972 17.0359 47.7319 16.7933ZM62.6367 19.4383C62.6367 19.6784 62.5192 19.8001 62.2873 19.8001H60.7209C60.5593 19.8001 60.4304 19.7478 60.3308 19.647C60.2279 19.5423 60.1773 19.4149 60.1773 19.2554V18.5317C59.6876 18.9983 59.1472 19.3569 58.5489 19.6148C57.953 19.8703 57.331 20 56.6854 20C55.6936 20 54.7606 19.7542 53.8856 19.2618C53.0114 18.7686 52.3127 18.0908 51.7878 17.2245C51.2622 16.3582 50.9985 15.3846 50.9985 14.3039C50.9985 13.2724 51.2532 12.319 51.7642 11.4446C52.2743 10.5694 52.9641 9.8739 53.8334 9.3614C54.6986 8.848 55.6495 8.5901 56.6854 8.5901C57.4543 8.5901 58.1326 8.7151 58.7162 8.9673C59.3007 9.2163 59.8288 9.6104 60.3071 10.1496L60.4622 9.0624C60.4802 8.9351 60.5153 8.8424 60.5683 8.7844C60.6206 8.7296 60.703 8.7006 60.8205 8.7006H62.2873C62.5192 8.7006 62.6367 8.8198 62.6367 9.0624V19.4383ZM60.1422 14.2951C60.1422 13.6721 59.9929 13.0991 59.6933 12.5713C59.3913 12.041 58.9864 11.6211 58.4754 11.3084C57.9653 10.9925 57.4045 10.8362 56.7939 10.8362C56.2013 10.8362 55.6528 10.9869 55.1476 11.2883C54.6431 11.5921 54.244 12.0063 53.9477 12.5334C53.6514 13.0612 53.5012 13.6496 53.5012 14.2951C53.5012 14.9301 53.6481 15.5096 53.9387 16.0398C54.2293 16.5669 54.6227 16.9843 55.1247 17.2882C55.6259 17.5928 56.1834 17.7459 56.7939 17.7459C57.4192 17.7459 57.9857 17.5896 58.4958 17.2793C59.0068 16.9666 59.4084 16.5492 59.7023 16.0189C59.9961 15.4918 60.1422 14.918 60.1422 14.2951ZM64.9116 9.0801C64.9116 8.8335 65.0259 8.7094 65.2577 8.7094H66.5253C66.678 8.7094 66.798 8.7328 66.8861 8.7819C66.9743 8.8311 67.0331 8.9407 67.0649 9.118L67.2388 10.0682C67.5318 9.5959 67.9105 9.2308 68.3709 8.9729C68.8321 8.7118 69.3423 8.5813 69.8973 8.5813C70.4989 8.5813 71.0531 8.7118 71.5674 8.9754C72.0808 9.2389 72.5061 9.5121 72.844 9.7958C72.9754 9.9231 73.0432 10.0391 73.0432 10.1496C73.0432 10.2269 73.0113 10.3083 72.9436 10.3921L72.1183 11.5429C72.0514 11.638 71.9722 11.688 71.8784 11.688C71.7992 11.688 71.7078 11.6501 71.6049 11.5776C71.2996 11.3745 70.9862 11.2037 70.6695 11.0707C70.352 10.9401 70.0026 10.8732 69.6239 10.8732C69.2459 10.8732 68.8876 10.9635 68.5562 11.1432C68.2215 11.3254 67.9489 11.6034 67.7399 11.9773C67.5293 12.3513 67.4232 12.8146 67.4232 13.3627V19.4383C67.4289 19.6784 67.309 19.8001 67.0649 19.8001H65.2577C65.0259 19.8001 64.9116 19.6784 64.9116 19.4383V9.0801ZM78.9031 8.7731C79.1561 8.7731 79.2794 8.8972 79.2794 9.1527V10.5928C79.2794 10.7145 79.241 10.8072 79.1618 10.8732C79.0826 10.9401 78.9831 10.9724 78.8688 10.9724H77.6036V16.3872C77.6036 16.778 77.6713 17.0915 77.8117 17.3228C77.9529 17.5573 78.2019 17.6822 78.557 17.7L78.8394 17.7169C79.0418 17.729 79.1675 17.7838 79.2149 17.8765C79.2647 17.9691 79.2883 18.0763 79.2883 18.198V19.4294C79.2883 19.7195 79.0622 19.8638 78.61 19.8638C77.926 19.8638 77.3163 19.7341 76.7816 19.4729C76.2478 19.2151 75.8282 18.8411 75.5287 18.3576C75.2291 17.8708 75.0797 17.3003 75.0797 16.6483V10.9724H74.061C73.9647 10.9724 73.8766 10.9401 73.7974 10.8732C73.7182 10.8072 73.6774 10.7145 73.6774 10.5928V9.1784C73.6774 9.0479 73.7149 8.9472 73.7917 8.877C73.8676 8.8077 73.959 8.7731 74.061 8.7731H75.0797V6.95337C75.0797 6.82604 75.1034 6.73336 75.1532 6.67534C75.203 6.62054 75.2968 6.57057 75.438 6.53592L77.2371 6.02015C77.2836 6.00887 77.3187 6 77.3367 6C77.4216 6 77.486 6.03788 77.5334 6.11041C77.5799 6.18294 77.6036 6.27562 77.6036 6.39166V8.7731H78.9031ZM93.1394 19.4842C93.0488 19.6962 92.8961 19.8001 92.6904 19.8001H91.6432C91.4375 19.8001 91.2881 19.6962 91.1942 19.4842L89.1601 14.5304L87.1497 19.4842C87.0591 19.6962 86.9097 19.8001 86.7008 19.8001H85.6004C85.3923 19.8001 85.2429 19.6962 85.1515 19.4842L80.9404 9.28C80.9053 9.1905 80.8874 9.1059 80.8874 9.0334C80.8874 8.9262 80.9225 8.8424 80.9927 8.7844C81.0637 8.7296 81.1543 8.7006 81.2718 8.7006H83.0709C83.2766 8.7006 83.4227 8.8134 83.5108 9.0423L86.0967 16.2687L88.7373 9.0165C88.8108 8.8045 88.9577 8.7006 89.1781 8.7006H91.0857C91.2791 8.7006 91.3787 8.7763 91.3787 8.9262C91.3787 8.9931 91.3526 9.089 91.3053 9.2163L90.2784 11.7952L92.1656 16.1962L94.909 9.0165C94.9939 8.8045 95.1409 8.7006 95.349 8.7006H97.166C97.3594 8.7006 97.4598 8.7763 97.4598 8.9262C97.4598 8.9931 97.4329 9.089 97.3864 9.2163L93.1394 19.4842ZM109.832 19.4383C109.832 19.6784 109.714 19.8001 109.482 19.8001H107.915C107.754 19.8001 107.625 19.7478 107.525 19.647C107.422 19.5423 107.372 19.4149 107.372 19.2554V18.5317C106.883 18.9983 106.342 19.3569 105.744 19.6148C105.148 19.8703 104.526 20 103.881 20C102.889 20 101.955 19.7542 101.081 19.2618C100.207 18.7686 99.5078 18.0908 98.9822 17.2245C98.4573 16.3582 98.1928 15.3846 98.1928 14.3039C98.1928 13.2724 98.4483 12.319 98.9593 11.4446C99.4695 10.5694 100.159 9.8739 101.028 9.3614C101.894 8.848 102.845 8.5901 103.881 8.5901C104.649 8.5901 105.327 8.7151 105.911 8.9673C106.495 9.2163 107.023 9.6104 107.501 10.1496L107.657 9.0624C107.674 8.9351 107.71 8.8424 107.763 8.7844C107.816 8.7296 107.898 8.7006 108.015 8.7006H109.482C109.714 8.7006 109.832 8.8198 109.832 9.0624V19.4383ZM107.337 14.2951C107.337 13.6721 107.187 13.0991 106.888 12.5713C106.586 12.041 106.181 11.6211 105.671 11.3084C105.16 10.9925 104.6 10.8362 103.989 10.8362C103.396 10.8362 102.847 10.9869 102.343 11.2883C101.838 11.5921 101.439 12.0063 101.142 12.5334C100.846 13.0612 100.696 13.6496 100.696 14.2951C100.696 14.9301 100.843 15.5096 101.134 16.0398C101.424 16.5669 101.817 16.9843 102.319 17.2882C102.821 17.5928 103.379 17.7459 103.989 17.7459C104.614 17.7459 105.18 17.5896 105.691 17.2793C106.202 16.9666 106.604 16.5492 106.897 16.0189C107.19 15.4918 107.337 14.918 107.337 14.2951ZM117.251 19.4842C117.157 19.6962 117.007 19.8001 116.801 19.8001H115.836C115.631 19.8001 115.478 19.6962 115.387 19.4842L111.149 9.28C111.114 9.1905 111.097 9.1059 111.097 9.0334C111.097 8.9262 111.132 8.8424 111.202 8.7844C111.273 8.7296 111.364 8.7006 111.481 8.7006H113.28C113.485 8.7006 113.632 8.8134 113.72 9.0423L116.315 16.1704L118.909 9.0165C118.982 8.8045 119.129 8.7006 119.349 8.7006H121.359C121.547 8.7006 121.644 8.7787 121.644 8.9351C121.644 8.9963 121.617 9.089 121.57 9.2163L117.251 19.4842ZM130.747 16.7579C130.829 16.7031 130.908 16.6773 130.988 16.6773C131.078 16.6773 131.149 16.712 131.199 16.7845L132.097 17.8708C132.17 17.9635 132.205 18.0505 132.205 18.1344C132.205 18.2238 132.161 18.3108 132.067 18.3979C131.416 18.9628 130.761 19.3746 130.11 19.6236C129.459 19.8727 128.76 20 128.015 20C127.008 20 126.061 19.7421 125.171 19.2296C124.285 18.717 123.578 18.0239 123.049 17.152C122.521 16.28 122.257 15.3323 122.257 14.3128C122.257 13.2756 122.503 12.319 122.994 11.447C123.487 10.5751 124.168 9.8828 125.036 9.3694C125.901 8.8569 126.876 8.599 127.95 8.599C128.824 8.599 129.691 8.8102 130.541 9.2308C131.396 9.6483 132.1 10.2882 132.66 11.1489C133.221 12.0096 133.5 13.0637 133.5 14.3128C133.5 14.5965 133.467 14.802 133.4 14.9301C133.333 15.0574 133.241 15.1324 133.127 15.159C133.015 15.188 132.84 15.2025 132.601 15.2025H124.714C124.836 15.7207 125.057 16.176 125.373 16.5669C125.693 16.961 126.081 17.2648 126.545 17.4824C127.005 17.7 127.501 17.8096 128.035 17.8096C128.443 17.8096 128.798 17.7661 129.098 17.6855C129.397 17.6041 129.643 17.5082 129.837 17.3953C130.028 17.2857 130.245 17.1375 130.483 16.9577L130.747 16.7579ZM127.971 10.7201C127.487 10.7201 127.034 10.8241 126.612 11.036C126.19 11.2472 125.826 11.5341 125.517 11.8959C125.206 12.2586 124.974 12.6615 124.816 13.1104H131.096C130.835 12.3916 130.427 11.8121 129.873 11.3745C129.321 10.9377 128.684 10.7201 127.971 10.7201Z" fill="white"/>
<path fill-rule="evenodd" clip-rule="evenodd" d="M0.865395 7.61351L6.51278 0H16.7C17.3785 0 17.9599 0.352179 18.2801 0.9567C18.6011 1.56044 18.5692 2.24514 18.1938 2.81743L14.4204 8.56706C14.3473 8.67791 14.2307 8.73687 14.0994 8.729C13.968 8.72036 13.8592 8.64725 13.8009 8.52776L13.1154 7.13319C12.897 6.68904 12.4975 6.41469 12.0086 6.37302C11.5197 6.33136 11.0806 6.53496 10.7922 6.93588L10.7736 6.96182C10.4673 7.38789 10.4238 7.91459 10.6554 8.38626L12.3179 11.7705L12.3164 11.7728L13.2234 13.6131L13.2366 13.6399L13.7364 14.6539L9.45539 21.1881C9.09164 21.7431 8.50794 22.0371 7.8504 21.9962C7.19364 21.9554 6.64957 21.5914 6.35578 20.9955L0.694403 9.51197C0.384286 8.8823 0.44802 8.17637 0.865395 7.61351Z" fill="#40CE8D"/>
<path fill-rule="evenodd" clip-rule="evenodd" d="M19.6964 6.35833L31.4587 5.01319C32.179 4.93091 32.8426 5.23738 33.2233 5.82918C33.6032 6.42023 33.5914 7.12602 33.191 7.70499L21.7629 24.2204C21.3941 24.7533 20.8014 25.0356 20.1354 24.9964C19.4694 24.9571 18.9177 24.6076 18.6198 24.0347L13.5 14.2012L18.396 7.12602C18.7018 6.68443 19.1478 6.42174 19.6964 6.35833Z" fill="#40CE8D"/>
<path fill-rule="evenodd" clip-rule="evenodd" d="M6.5 0.470001L10.5314 8.15304C10.3098 7.72376 10.3552 7.24551 10.6501 6.85729L10.6675 6.83424C10.9481 6.46619 11.3762 6.28036 11.852 6.31781C12.3277 6.35671 12.7173 6.60808 12.929 7.01575L13.5901 8.28557C13.6468 8.39505 13.7535 8.46203 13.8813 8.46924C14.0091 8.47716 14.1226 8.42314 14.1937 8.32158L14.5 7.8815L10.6199 0.470001H6.5Z" fill="url(#paint0_linear_82_83)"/>
</g>
<defs>
<linearGradient id="paint0_linear_82_83" x1="-4.0502" y1="8.47024" x2="9.85187" y2="3.05471" gradientUnits="userSpaceOnUse">
<stop/>
<stop offset="1" stop-opacity="0"/>
</linearGradient>
<clipPath id="clip0_82_83">
<rect width="133" height="25" fill="white" transform="translate(0.5 0.470001)"/>
</clipPath>
</defs>
</svg>
