<svg width="160" height="40" viewBox="0 0 160 40" fill="none" xmlns="http://www.w3.org/2000/svg">
<g clip-path="url(#clip0_140_146)">
<path d="M66.1986 22.3712C66.2878 22.3062 66.3641 22.2749 66.4326 22.2749C66.4982 22.2749 66.5538 22.3039 66.5981 22.3648L67.2418 23.4347C67.2908 23.487 67.3138 23.5392 67.3138 23.5914C67.3138 23.6558 67.2654 23.7249 67.1697 23.7998C66.7873 24.0771 66.373 24.2924 65.9202 24.4427C65.4698 24.5924 64.9639 24.6678 64.4072 24.6678C63.5213 24.6678 62.7033 24.4531 61.9533 24.0248C61.2033 23.5955 60.6081 23.0153 60.1708 22.2812C59.7328 21.5467 59.5142 20.7436 59.5142 19.8756C59.5142 19.0058 59.7328 18.2067 60.1708 17.4768C60.6081 16.7469 61.2033 16.1689 61.9533 15.7454C62.7033 15.3218 63.5213 15.1094 64.4072 15.1094C64.9639 15.1094 65.4698 15.1843 65.9202 15.3322C66.373 15.4784 66.7937 15.6932 67.1826 15.9769C67.2571 16.0372 67.2949 16.104 67.2949 16.1794C67.2949 16.2229 67.2843 16.2583 67.2612 16.2897L66.5851 17.4101C66.5449 17.4623 66.4941 17.4896 66.4326 17.4896C66.3706 17.4896 66.3003 17.4646 66.2263 17.4165C65.9072 17.2221 65.6058 17.0765 65.3233 16.9848C65.0408 16.8908 64.7346 16.8449 64.4072 16.8449C63.8445 16.8449 63.3345 16.9784 62.8753 17.2476C62.4184 17.5163 62.0573 17.8836 61.7937 18.3466C61.5302 18.8097 61.3983 19.3191 61.3983 19.8756C61.3983 20.4308 61.5302 20.9461 61.7937 21.4173C62.0573 21.889 62.4184 22.2621 62.8753 22.5377C63.3345 22.8133 63.8445 22.9526 64.4072 22.9526C64.7388 22.9526 65.0597 22.8986 65.37 22.7924C65.6803 22.6856 65.9563 22.5458 66.1986 22.3712ZM76.9906 24.2756C76.9906 24.4484 76.9055 24.536 76.7376 24.536H75.6034C75.4864 24.536 75.3931 24.4984 75.321 24.4258C75.2465 24.3504 75.2098 24.2587 75.2098 24.1439V23.6228C74.8553 23.9588 74.464 24.2169 74.0308 24.4026C73.5993 24.5866 73.1489 24.68 72.6815 24.68C71.9634 24.68 71.2878 24.503 70.6543 24.1485C70.0213 23.7934 69.5154 23.3054 69.1353 22.6816C68.7548 22.0579 68.5638 21.3569 68.5638 20.5788C68.5638 19.8361 68.7482 19.1497 69.1182 18.5201C69.4876 17.8899 69.987 17.3892 70.6165 17.0202C71.2429 16.6505 71.9314 16.4648 72.6815 16.4648C73.2382 16.4648 73.7293 16.5548 74.1519 16.7364C74.5751 16.9157 74.9575 17.1995 75.3038 17.5877L75.4161 16.8049C75.4291 16.7132 75.4546 16.6465 75.4929 16.6047C75.5308 16.5653 75.5905 16.5444 75.6755 16.5444H76.7376C76.9055 16.5444 76.9906 16.6302 76.9906 16.8049V24.2756ZM75.1844 20.5724C75.1844 20.1239 75.0763 19.7113 74.8594 19.3313C74.6407 18.9495 74.3475 18.6472 73.9776 18.422C73.6082 18.1946 73.2022 18.082 72.76 18.082C72.331 18.082 71.9338 18.1905 71.568 18.4076C71.2027 18.6263 70.9138 18.9245 70.6992 19.304C70.4847 19.684 70.3759 20.1077 70.3759 20.5724C70.3759 21.0296 70.4823 21.4469 70.6927 21.8286C70.9031 22.2081 71.188 22.5087 71.5514 22.7275C71.9143 22.9468 72.318 23.057 72.76 23.057C73.2128 23.057 73.623 22.9445 73.9923 22.7211C74.3623 22.4959 74.6531 22.1954 74.8659 21.8136C75.0786 21.4341 75.1844 21.0209 75.1844 20.5724ZM78.6377 16.8176C78.6377 16.6401 78.7205 16.5507 78.8883 16.5507H79.8062C79.9167 16.5507 80.0036 16.5676 80.0674 16.6029C80.1313 16.6384 80.1738 16.7173 80.1969 16.8449L80.3228 17.5291C80.5349 17.189 80.8091 16.9262 81.1425 16.7405C81.4764 16.5525 81.8458 16.4585 82.2477 16.4585C82.6833 16.4585 83.0846 16.5525 83.4569 16.7423C83.8287 16.932 84.1366 17.1287 84.3813 17.333C84.4764 17.4246 84.5255 17.5081 84.5255 17.5877C84.5255 17.6433 84.5024 17.702 84.4534 17.7623L83.8558 18.5909C83.8074 18.6593 83.7501 18.6953 83.6821 18.6953C83.6248 18.6953 83.5586 18.668 83.4841 18.6158C83.263 18.4696 83.0361 18.3466 82.8068 18.2509C82.5769 18.1568 82.3239 18.1087 82.0497 18.1087C81.776 18.1087 81.5166 18.1737 81.2767 18.3031C81.0343 18.4343 80.8369 18.6344 80.6856 18.9036C80.5331 19.1729 80.4563 19.5065 80.4563 19.9011V24.2756C80.4604 24.4484 80.3736 24.536 80.1969 24.536H78.8883C78.7205 24.536 78.6377 24.4484 78.6377 24.2756V16.8176ZM88.7684 16.5966C88.9516 16.5966 89.0409 16.686 89.0409 16.8699V17.9068C89.0409 17.9944 89.0131 18.0612 88.9558 18.1087C88.8984 18.1568 88.8264 18.1801 88.7436 18.1801H87.8275V22.0788C87.8275 22.3601 87.8765 22.5859 87.9782 22.7524C88.0804 22.9212 88.2607 23.0112 88.5178 23.024L88.7223 23.0361C88.8689 23.0449 88.9599 23.0843 88.9942 23.1511C89.0303 23.2177 89.0473 23.2949 89.0473 23.3825V24.2691C89.0473 24.478 88.8836 24.5819 88.5562 24.5819C88.061 24.5819 87.6195 24.4885 87.2323 24.3005C86.8458 24.1148 86.542 23.8456 86.3252 23.4974C86.1082 23.147 86.0001 22.7362 86.0001 22.2668V18.1801H85.2625C85.1927 18.1801 85.129 18.1568 85.0716 18.1087C85.0143 18.0612 84.9847 17.9944 84.9847 17.9068V16.8884C84.9847 16.7945 85.0119 16.722 85.0675 16.6714C85.1224 16.6215 85.1886 16.5966 85.2625 16.5966H86.0001V15.2864C86.0001 15.1947 86.0172 15.128 86.0533 15.0862C86.0893 15.0468 86.1573 15.0108 86.2595 14.9858L87.5622 14.6145C87.5958 14.6064 87.6212 14.6 87.6343 14.6C87.6957 14.6 87.7424 14.6272 87.7767 14.6795C87.8104 14.7317 87.8275 14.7984 87.8275 14.882V16.5966H88.7684ZM99.0764 24.3086C99.0108 24.4612 98.9002 24.536 98.7513 24.536H97.993C97.8441 24.536 97.7359 24.4612 97.6679 24.3086L96.1951 20.7419L94.7395 24.3086C94.6739 24.4612 94.5657 24.536 94.4144 24.536H93.6177C93.467 24.536 93.3588 24.4612 93.2927 24.3086L90.2436 16.9616C90.2182 16.8971 90.2052 16.8362 90.2052 16.784C90.2052 16.7068 90.2306 16.6465 90.2814 16.6047C90.3328 16.5653 90.3984 16.5444 90.4835 16.5444H91.7862C91.9351 16.5444 92.0409 16.6256 92.1047 16.7904L93.977 21.9934L95.889 16.7719C95.9422 16.6192 96.0486 16.5444 96.2082 16.5444H97.5894C97.7294 16.5444 97.8015 16.5989 97.8015 16.7068C97.8015 16.755 97.7826 16.8241 97.7484 16.9157L97.0048 18.7725L98.3713 21.9412L100.358 16.7719C100.419 16.6192 100.526 16.5444 100.676 16.5444H101.992C102.132 16.5444 102.205 16.5989 102.205 16.7068C102.205 16.755 102.185 16.8241 102.151 16.9157L99.0764 24.3086ZM111.163 24.2756C111.163 24.4484 111.077 24.536 110.909 24.536H109.775C109.658 24.536 109.565 24.4984 109.492 24.4258C109.418 24.3504 109.382 24.2587 109.382 24.1439V23.6228C109.028 23.9588 108.636 24.2169 108.203 24.4026C107.771 24.5866 107.321 24.68 106.854 24.68C106.136 24.68 105.459 24.503 104.827 24.1485C104.193 23.7934 103.687 23.3054 103.307 22.6816C102.927 22.0579 102.735 21.3569 102.735 20.5788C102.735 19.8361 102.92 19.1497 103.29 18.5201C103.66 17.8899 104.159 17.3892 104.788 17.0202C105.415 16.6505 106.104 16.4648 106.854 16.4648C107.41 16.4648 107.901 16.5548 108.324 16.7364C108.747 16.9157 109.129 17.1995 109.475 17.5877L109.588 16.8049C109.6 16.7132 109.626 16.6465 109.665 16.6047C109.703 16.5653 109.762 16.5444 109.847 16.5444H110.909C111.077 16.5444 111.163 16.6302 111.163 16.8049V24.2756ZM109.356 20.5724C109.356 20.1239 109.248 19.7113 109.031 19.3313C108.813 18.9495 108.519 18.6472 108.15 18.422C107.78 18.1946 107.375 18.082 106.932 18.082C106.503 18.082 106.105 18.1905 105.74 18.4076C105.375 18.6263 105.086 18.9245 104.871 19.304C104.656 19.684 104.548 20.1077 104.548 20.5724C104.548 21.0296 104.654 21.4469 104.865 21.8286C105.075 22.2081 105.359 22.5087 105.723 22.7275C106.086 22.9468 106.49 23.057 106.932 23.057C107.385 23.057 107.794 22.9445 108.164 22.7211C108.534 22.4959 108.826 22.1954 109.038 21.8136C109.25 21.4341 109.356 21.0209 109.356 20.5724ZM116.535 24.3086C116.467 24.4612 116.358 24.536 116.209 24.536H115.51C115.362 24.536 115.251 24.4612 115.185 24.3086L112.116 16.9616C112.091 16.8971 112.079 16.8362 112.079 16.784C112.079 16.7068 112.104 16.6465 112.155 16.6047C112.206 16.5653 112.272 16.5444 112.357 16.5444H113.659C113.808 16.5444 113.914 16.6256 113.978 16.7904L115.857 21.9227L117.735 16.7719C117.788 16.6192 117.894 16.5444 118.054 16.5444H119.509C119.645 16.5444 119.715 16.6006 119.715 16.7132C119.715 16.7573 119.696 16.8241 119.662 16.9157L116.535 24.3086ZM126.307 22.3457C126.366 22.3062 126.423 22.2876 126.481 22.2876C126.546 22.2876 126.598 22.3126 126.634 22.3648L127.284 23.147C127.337 23.2137 127.362 23.2763 127.362 23.3367C127.362 23.4011 127.33 23.4638 127.262 23.5265C126.791 23.9332 126.317 24.2297 125.845 24.409C125.374 24.5883 124.868 24.68 124.328 24.68C123.599 24.68 122.914 24.4943 122.269 24.1253C121.628 23.7562 121.116 23.2572 120.733 22.6294C120.35 22.0016 120.159 21.3192 120.159 20.5852C120.159 19.8384 120.337 19.1497 120.693 18.5218C121.05 17.894 121.543 17.3956 122.171 17.0259C122.798 16.6569 123.504 16.4713 124.281 16.4713C124.914 16.4713 125.542 16.6233 126.157 16.9262C126.776 17.2268 127.286 17.6875 127.692 18.3072C128.098 18.9269 128.3 19.6858 128.3 20.5852C128.3 20.7895 128.276 20.9374 128.227 21.0296C128.179 21.1213 128.112 21.1753 128.03 21.1945C127.949 21.2153 127.822 21.2258 127.649 21.2258H121.938C122.027 21.5989 122.187 21.9267 122.415 22.2081C122.647 22.4919 122.928 22.7106 123.264 22.8673C123.597 23.024 123.956 23.1029 124.343 23.1029C124.638 23.1029 124.895 23.0716 125.113 23.0135C125.329 22.9549 125.507 22.8859 125.648 22.8046C125.786 22.7257 125.943 22.619 126.115 22.4895L126.307 22.3457ZM124.297 17.9984C123.946 17.9984 123.618 18.0733 123.313 18.2259C123.007 18.378 122.743 18.5845 122.52 18.845C122.295 19.1062 122.127 19.3963 122.012 19.7195H126.559C126.37 19.2019 126.075 18.7847 125.674 18.4696C125.274 18.1551 124.813 17.9984 124.297 17.9984Z" fill="white"/>
<path fill-rule="evenodd" clip-rule="evenodd" d="M32.2646 16.4817L36.3536 11H43.7298C44.221 11 44.642 11.2536 44.8739 11.6888C45.1063 12.1235 45.0832 12.6165 44.8114 13.0285L42.0792 17.1683C42.0263 17.2481 41.9419 17.2905 41.8468 17.2849C41.7516 17.2787 41.6729 17.226 41.6307 17.14L41.1343 16.1359C40.9762 15.8161 40.6869 15.6186 40.3329 15.5886C39.9789 15.5586 39.661 15.7052 39.4522 15.9938L39.4387 16.0125C39.217 16.3193 39.1854 16.6985 39.3531 17.0381L40.5569 19.4748L40.5558 19.4764L41.2125 20.8014L41.2221 20.8207L41.5839 21.5508L38.4842 26.2554C38.2209 26.655 37.7982 26.8667 37.3221 26.8373C36.8466 26.8079 36.4527 26.5458 36.2399 26.1168L32.1408 17.8486C31.9162 17.3953 31.9624 16.887 32.2646 16.4817Z" fill="#40CE8D"/>
<path fill-rule="evenodd" clip-rule="evenodd" d="M45.8992 15.578L54.4158 14.6095C54.9373 14.5502 55.4178 14.7709 55.6935 15.197C55.9685 15.6225 55.96 16.1307 55.6701 16.5476L47.3954 28.4387C47.1284 28.8223 46.6993 29.0256 46.217 28.9974C45.7348 28.9691 45.3353 28.7174 45.1196 28.305L41.4126 21.2248L44.9576 16.1307C45.179 15.8128 45.5019 15.6236 45.8992 15.578Z" fill="#40CE8D"/>
<path fill-rule="evenodd" clip-rule="evenodd" d="M36.3442 11L39.2632 16.5318C39.1027 16.2227 39.1356 15.8784 39.3492 15.5988L39.3618 15.5823C39.5649 15.3173 39.8749 15.1835 40.2194 15.2104C40.5638 15.2384 40.8459 15.4194 40.9992 15.7129L41.4779 16.6272C41.519 16.706 41.5962 16.7543 41.6887 16.7595C41.7813 16.7652 41.8635 16.7263 41.9149 16.6531L42.1367 16.3363L39.3273 11H36.3442Z" fill="url(#paint0_linear_140_146)"/>
</g>
<defs>
<linearGradient id="paint0_linear_140_146" x1="28.7053" y1="16.7602" x2="38.7562" y2="12.8228" gradientUnits="userSpaceOnUse">
<stop/>
<stop offset="1" stop-opacity="0"/>
</linearGradient>
<clipPath id="clip0_140_146">
<rect width="96.3" height="18" fill="white" transform="translate(32 11)"/>
</clipPath>
</defs>
</svg>
