<svg width="161" height="40" viewBox="0 0 161 40" fill="none" xmlns="http://www.w3.org/2000/svg">
<g clip-path="url(#clip0_140_338)">
<path d="M66.932 22.3712C67.0212 22.3062 67.0975 22.2749 67.166 22.2749C67.2316 22.2749 67.2872 22.3039 67.3315 22.3648L67.9752 23.4347C68.0242 23.487 68.0472 23.5392 68.0472 23.5914C68.0472 23.6558 67.9988 23.7249 67.903 23.7998C67.5207 24.0771 67.1064 24.2924 66.6536 24.4427C66.2032 24.5924 65.6973 24.6678 65.1406 24.6678C64.2547 24.6678 63.4367 24.4531 62.6867 24.0248C61.9367 23.5955 61.3415 23.0153 60.9042 22.2812C60.4662 21.5467 60.2476 20.7436 60.2476 19.8756C60.2476 19.0058 60.4662 18.2067 60.9042 17.4768C61.3415 16.7469 61.9367 16.1689 62.6867 15.7454C63.4367 15.3218 64.2547 15.1094 65.1406 15.1094C65.6973 15.1094 66.2032 15.1843 66.6536 15.3322C67.1064 15.4784 67.5271 15.6932 67.916 15.9769C67.9905 16.0372 68.0283 16.104 68.0283 16.1794C68.0283 16.2229 68.0177 16.2583 67.9946 16.2897L67.3185 17.4101C67.2783 17.4623 67.2275 17.4896 67.166 17.4896C67.104 17.4896 67.0337 17.4646 66.9597 17.4165C66.6406 17.2221 66.3392 17.0765 66.0567 16.9848C65.7742 16.8908 65.468 16.8449 65.1406 16.8449C64.5779 16.8449 64.0679 16.9784 63.6087 17.2476C63.1518 17.5163 62.7907 17.8836 62.5271 18.3466C62.2636 18.8097 62.1317 19.3191 62.1317 19.8756C62.1317 20.4308 62.2636 20.9461 62.5271 21.4173C62.7907 21.889 63.1518 22.2621 63.6087 22.5377C64.0679 22.8133 64.5779 22.9526 65.1406 22.9526C65.4722 22.9526 65.7931 22.8986 66.1034 22.7924C66.4137 22.6856 66.6897 22.5458 66.932 22.3712ZM77.724 24.2756C77.724 24.4484 77.6389 24.536 77.471 24.536H76.3368C76.2198 24.536 76.1265 24.4984 76.0544 24.4258C75.9799 24.3504 75.9432 24.2587 75.9432 24.1439V23.6228C75.5887 23.9588 75.1974 24.2169 74.7642 24.4026C74.3327 24.5866 73.8823 24.68 73.4149 24.68C72.6968 24.68 72.0212 24.503 71.3877 24.1485C70.7547 23.7934 70.2488 23.3054 69.8687 22.6816C69.4882 22.0579 69.2972 21.3569 69.2972 20.5788C69.2972 19.8361 69.4816 19.1497 69.8516 18.5201C70.221 17.8899 70.7204 17.3892 71.3499 17.0202C71.9763 16.6505 72.6648 16.4648 73.4149 16.4648C73.9716 16.4648 74.4627 16.5548 74.8853 16.7364C75.3085 16.9157 75.6909 17.1995 76.0372 17.5877L76.1495 16.8049C76.1625 16.7132 76.188 16.6465 76.2263 16.6047C76.2642 16.5653 76.3239 16.5444 76.4089 16.5444H77.471C77.6389 16.5444 77.724 16.6302 77.724 16.8049V24.2756ZM75.9178 20.5724C75.9178 20.1239 75.8097 19.7113 75.5928 19.3313C75.3741 18.9495 75.0809 18.6472 74.711 18.422C74.3416 18.1946 73.9356 18.082 73.4934 18.082C73.0644 18.082 72.6672 18.1905 72.3014 18.4076C71.9361 18.6263 71.6472 18.9245 71.4326 19.304C71.2181 19.684 71.1093 20.1077 71.1093 20.5724C71.1093 21.0296 71.2157 21.4469 71.4261 21.8286C71.6365 22.2081 71.9214 22.5087 72.2848 22.7275C72.6477 22.9468 73.0514 23.057 73.4934 23.057C73.9462 23.057 74.3564 22.9445 74.7257 22.7211C75.0957 22.4959 75.3865 22.1954 75.5993 21.8136C75.812 21.4341 75.9178 21.0209 75.9178 20.5724ZM79.3711 16.8176C79.3711 16.6401 79.4539 16.5507 79.6217 16.5507H80.5396C80.6501 16.5507 80.737 16.5676 80.8008 16.6029C80.8647 16.6384 80.9072 16.7173 80.9303 16.8449L81.0562 17.5291C81.2683 17.189 81.5425 16.9262 81.8759 16.7405C82.2098 16.5525 82.5792 16.4585 82.9811 16.4585C83.4167 16.4585 83.818 16.5525 84.1903 16.7423C84.5621 16.932 84.87 17.1287 85.1147 17.333C85.2098 17.4246 85.2589 17.5081 85.2589 17.5877C85.2589 17.6433 85.2358 17.702 85.1868 17.7623L84.5892 18.5909C84.5408 18.6593 84.4834 18.6953 84.4155 18.6953C84.3582 18.6953 84.292 18.668 84.2175 18.6158C83.9964 18.4696 83.7695 18.3466 83.5402 18.2509C83.3103 18.1568 83.0573 18.1087 82.7831 18.1087C82.5094 18.1087 82.25 18.1737 82.0101 18.3031C81.7677 18.4343 81.5703 18.6344 81.419 18.9036C81.2665 19.1729 81.1897 19.5065 81.1897 19.9011V24.2756C81.1938 24.4484 81.107 24.536 80.9303 24.536H79.6217C79.4539 24.536 79.3711 24.4484 79.3711 24.2756V16.8176ZM89.5018 16.5966C89.685 16.5966 89.7743 16.686 89.7743 16.8699V17.9068C89.7743 17.9944 89.7465 18.0612 89.6891 18.1087C89.6318 18.1568 89.5598 18.1801 89.477 18.1801H88.5609V22.0788C88.5609 22.3601 88.6099 22.5859 88.7116 22.7524C88.8138 22.9212 88.9941 23.0112 89.2512 23.024L89.4557 23.0361C89.6023 23.0449 89.6933 23.0843 89.7276 23.1511C89.7637 23.2177 89.7807 23.2949 89.7807 23.3825V24.2691C89.7807 24.478 89.617 24.5819 89.2896 24.5819C88.7944 24.5819 88.3529 24.4885 87.9657 24.3005C87.5792 24.1148 87.2754 23.8456 87.0586 23.4974C86.8416 23.147 86.7335 22.7362 86.7335 22.2668V18.1801H85.9959C85.9261 18.1801 85.8623 18.1568 85.805 18.1087C85.7477 18.0612 85.7181 17.9944 85.7181 17.9068V16.8884C85.7181 16.7945 85.7453 16.722 85.8009 16.6714C85.8558 16.6215 85.922 16.5966 85.9959 16.5966H86.7335V15.2864C86.7335 15.1947 86.7506 15.128 86.7867 15.0862C86.8227 15.0468 86.8907 15.0108 86.9929 14.9858L88.2956 14.6145C88.3292 14.6064 88.3546 14.6 88.3677 14.6C88.4291 14.6 88.4758 14.6272 88.5101 14.6795C88.5438 14.7317 88.5609 14.7984 88.5609 14.882V16.5966H89.5018ZM99.8098 24.3086C99.7442 24.4612 99.6336 24.536 99.4847 24.536H98.7264C98.5775 24.536 98.4693 24.4612 98.4013 24.3086L96.9285 20.7419L95.4729 24.3086C95.4073 24.4612 95.2991 24.536 95.1478 24.536H94.3511C94.2004 24.536 94.0922 24.4612 94.0261 24.3086L90.977 16.9616C90.9515 16.8971 90.9386 16.8362 90.9386 16.784C90.9386 16.7068 90.964 16.6465 91.0148 16.6047C91.0662 16.5653 91.1318 16.5444 91.2169 16.5444H92.5196C92.6685 16.5444 92.7743 16.6256 92.8381 16.7904L94.7104 21.9934L96.6224 16.7719C96.6756 16.6192 96.782 16.5444 96.9416 16.5444H98.3228C98.4628 16.5444 98.5349 16.5989 98.5349 16.7068C98.5349 16.755 98.516 16.8241 98.4818 16.9157L97.7382 18.7725L99.1047 21.9412L101.091 16.7719C101.153 16.6192 101.259 16.5444 101.41 16.5444H102.725C102.865 16.5444 102.938 16.5989 102.938 16.7068C102.938 16.755 102.919 16.8241 102.885 16.9157L99.8098 24.3086ZM111.896 24.2756C111.896 24.4484 111.811 24.536 111.643 24.536H110.508C110.392 24.536 110.298 24.4984 110.226 24.4258C110.151 24.3504 110.115 24.2587 110.115 24.1439V23.6228C109.761 23.9588 109.369 24.2169 108.936 24.4026C108.505 24.5866 108.054 24.68 107.587 24.68C106.869 24.68 106.193 24.503 105.56 24.1485C104.927 23.7934 104.421 23.3054 104.04 22.6816C103.66 22.0579 103.469 21.3569 103.469 20.5788C103.469 19.8361 103.654 19.1497 104.024 18.5201C104.393 17.8899 104.893 17.3892 105.522 17.0202C106.149 16.6505 106.837 16.4648 107.587 16.4648C108.143 16.4648 108.634 16.5548 109.057 16.7364C109.48 16.9157 109.862 17.1995 110.208 17.5877L110.321 16.8049C110.334 16.7132 110.36 16.6465 110.398 16.6047C110.437 16.5653 110.496 16.5444 110.581 16.5444H111.643C111.811 16.5444 111.896 16.6302 111.896 16.8049V24.2756ZM110.09 20.5724C110.09 20.1239 109.981 19.7113 109.765 19.3313C109.546 18.9495 109.253 18.6472 108.883 18.422C108.513 18.1946 108.108 18.082 107.666 18.082C107.236 18.082 106.839 18.1905 106.474 18.4076C106.108 18.6263 105.819 18.9245 105.604 19.304C105.39 19.684 105.281 20.1077 105.281 20.5724C105.281 21.0296 105.388 21.4469 105.598 21.8286C105.808 22.2081 106.093 22.5087 106.456 22.7275C106.82 22.9468 107.224 23.057 107.666 23.057C108.118 23.057 108.528 22.9445 108.898 22.7211C109.268 22.4959 109.559 22.1954 109.771 21.8136C109.983 21.4341 110.09 21.0209 110.09 20.5724ZM117.268 24.3086C117.2 24.4612 117.091 24.536 116.942 24.536H116.243C116.095 24.536 115.984 24.4612 115.918 24.3086L112.85 16.9616C112.824 16.8971 112.812 16.8362 112.812 16.784C112.812 16.7068 112.838 16.6465 112.888 16.6047C112.94 16.5653 113.005 16.5444 113.09 16.5444H114.393C114.541 16.5444 114.648 16.6256 114.711 16.7904L116.59 21.9227L118.469 16.7719C118.521 16.6192 118.628 16.5444 118.787 16.5444H120.242C120.379 16.5444 120.449 16.6006 120.449 16.7132C120.449 16.7573 120.429 16.8241 120.395 16.9157L117.268 24.3086ZM127.04 22.3457C127.099 22.3062 127.157 22.2876 127.214 22.2876C127.28 22.2876 127.331 22.3126 127.367 22.3648L128.017 23.147C128.07 23.2137 128.096 23.2763 128.096 23.3367C128.096 23.4011 128.064 23.4638 127.996 23.5265C127.524 23.9332 127.05 24.2297 126.579 24.409C126.107 24.5883 125.601 24.68 125.062 24.68C124.333 24.68 123.647 24.4943 123.003 24.1253C122.361 23.7562 121.849 23.2572 121.466 22.6294C121.084 22.0016 120.893 21.3192 120.893 20.5852C120.893 19.8384 121.071 19.1497 121.426 18.5218C121.783 17.894 122.276 17.3956 122.905 17.0259C123.531 16.6569 124.237 16.4713 125.015 16.4713C125.648 16.4713 126.275 16.6233 126.891 16.9262C127.51 17.2268 128.02 17.6875 128.425 18.3072C128.831 18.9269 129.033 19.6858 129.033 20.5852C129.033 20.7895 129.009 20.9374 128.961 21.0296C128.912 21.1213 128.846 21.1753 128.763 21.1945C128.682 21.2153 128.555 21.2258 128.382 21.2258H122.672C122.76 21.5989 122.92 21.9267 123.149 22.2081C123.381 22.4919 123.661 22.7106 123.997 22.8673C124.331 23.024 124.69 23.1029 125.076 23.1029C125.372 23.1029 125.629 23.0716 125.846 23.0135C126.062 22.9549 126.241 22.8859 126.381 22.8046C126.519 22.7257 126.676 22.619 126.849 22.4895L127.04 22.3457ZM125.03 17.9984C124.68 17.9984 124.352 18.0733 124.046 18.2259C123.74 18.378 123.477 18.5845 123.253 18.845C123.028 19.1062 122.86 19.3963 122.746 19.7195H127.293C127.104 19.2019 126.808 18.7847 126.407 18.4696C126.007 18.1551 125.546 17.9984 125.03 17.9984Z" fill="#111111"/>
<path fill-rule="evenodd" clip-rule="evenodd" d="M32.998 16.4817L37.087 11H44.4632C44.9544 11 45.3754 11.2536 45.6073 11.6888C45.8397 12.1235 45.8166 12.6165 45.5448 13.0285L42.8126 17.1683C42.7597 17.2481 42.6753 17.2905 42.5802 17.2849C42.485 17.2787 42.4063 17.226 42.364 17.14L41.8677 16.1359C41.7096 15.8161 41.4203 15.6186 41.0663 15.5886C40.7123 15.5586 40.3944 15.7052 40.1856 15.9938L40.1721 16.0125C39.9504 16.3193 39.9188 16.6985 40.0865 17.0381L41.2903 19.4748L41.2892 19.4764L41.9459 20.8014L41.9555 20.8207L42.3173 21.5508L39.2176 26.2554C38.9543 26.655 38.5316 26.8667 38.0555 26.8373C37.58 26.8079 37.1861 26.5458 36.9733 26.1168L32.8742 17.8486C32.6496 17.3953 32.6958 16.887 32.998 16.4817Z" fill="#40CE8D"/>
<path fill-rule="evenodd" clip-rule="evenodd" d="M46.6326 15.578L55.1492 14.6095C55.6707 14.5502 56.1512 14.7709 56.4269 15.197C56.7019 15.6225 56.6934 16.1307 56.4035 16.5476L48.1288 28.4387C47.8618 28.8223 47.4326 29.0256 46.9504 28.9974C46.4682 28.9691 46.0687 28.7174 45.853 28.305L42.146 21.2248L45.691 16.1307C45.9124 15.8128 46.2353 15.6236 46.6326 15.578Z" fill="#40CE8D"/>
<path fill-rule="evenodd" clip-rule="evenodd" d="M37.0776 11L39.9966 16.5318C39.8361 16.2227 39.869 15.8784 40.0826 15.5988L40.0952 15.5823C40.2983 15.3173 40.6083 15.1835 40.9528 15.2104C41.2972 15.2384 41.5793 15.4194 41.7326 15.7129L42.2113 16.6272C42.2524 16.706 42.3296 16.7543 42.4221 16.7595C42.5147 16.7652 42.5969 16.7263 42.6483 16.6531L42.8701 16.3363L40.0607 11H37.0776Z" fill="url(#paint0_linear_140_338)"/>
</g>
<defs>
<linearGradient id="paint0_linear_140_338" x1="29.4387" y1="16.7602" x2="39.4896" y2="12.8228" gradientUnits="userSpaceOnUse">
<stop/>
<stop offset="1" stop-opacity="0"/>
</linearGradient>
<clipPath id="clip0_140_338">
<rect width="96.3" height="18" fill="white" transform="translate(32.7334 11)"/>
</clipPath>
</defs>
</svg>
