<svg width="160" height="40" viewBox="0 0 160 40" fill="none" xmlns="http://www.w3.org/2000/svg">
<path d="M21.2373 20.9286C22.9246 17.8225 25.147 15.4714 27.1666 14.38L25.1384 11.1877C24.9787 10.9374 24.7241 10.9374 24.5731 11.1877L13.474 28.6765C13.3143 28.9267 13.4481 29 13.7372 29H19.0322C18.9502 26.7395 19.6277 23.875 21.2373 20.9286Z" fill="#3A9A40"/>
<path d="M27.8574 16.3687C26.7699 15.7734 24.4223 17.9778 22.6142 21.2952C20.8061 24.6127 20.2278 27.7791 21.3153 28.3787C22.105 28.8058 23.4341 27.6799 24.8539 25.8292V21.5929C24.8539 21.1529 25.1301 20.9113 25.3372 21.2952L26.5196 23.5299C26.5369 23.504 26.5455 23.4824 26.5628 23.4565C28.3709 20.1391 28.9492 16.9683 27.8574 16.3687Z" fill="#3A9A40"/>
<path d="M36.2463 28.6765L31.767 21.6145C31.3414 23.0479 30.7642 24.4319 30.0452 25.743C29.6595 26.4474 29.2375 27.1314 28.7808 27.7921L29.6266 29H35.9831C36.2722 29 36.406 28.9267 36.2463 28.6765Z" fill="#3A9A40"/>
<path d="M108.097 22.0307C108.577 21.8587 108.991 21.5423 109.283 21.1252C109.576 20.708 109.732 20.2105 109.73 19.7012V18.8959C109.729 18.2362 109.467 17.6035 109.001 17.137C108.534 16.6706 107.901 16.4084 107.241 16.4082H99.5813C99.3736 16.4088 99.1745 16.4915 99.0276 16.6384C98.8807 16.7852 98.7979 16.9842 98.7974 17.1919V24.8492C98.7979 25.0569 98.8807 25.2559 99.0276 25.4027C99.1745 25.5496 99.3736 25.6323 99.5813 25.6329H99.8834C100.091 25.6323 100.29 25.5496 100.437 25.4027C100.584 25.2559 100.667 25.0569 100.667 24.8492V22.5484C100.667 22.5059 100.675 22.4637 100.692 22.4244C100.708 22.385 100.732 22.3493 100.762 22.3192C100.792 22.2891 100.828 22.2653 100.867 22.2491C100.906 22.2329 100.948 22.2247 100.991 22.2249H105.688C105.773 22.225 105.858 22.2477 105.932 22.2905C106.007 22.3334 106.069 22.3951 106.112 22.4693L107.745 25.3165C107.813 25.4354 107.912 25.5344 108.03 25.6038C108.149 25.6731 108.283 25.7104 108.421 25.712C108.569 25.7139 108.714 25.6713 108.838 25.5898L108.881 25.5466C109.059 25.4385 109.187 25.2659 109.241 25.0649C109.289 24.8591 109.255 24.6425 109.147 24.4609L107.953 22.4118C107.935 22.3791 107.924 22.3431 107.921 22.3061C107.917 22.2691 107.921 22.2317 107.932 22.1961C107.946 22.1585 107.968 22.1243 107.997 22.0958C108.025 22.0674 108.059 22.0452 108.097 22.0307ZM107.831 19.8522C107.831 20.3842 107.399 20.6287 106.975 20.6287H100.984C100.908 20.6287 100.834 20.5984 100.78 20.5445C100.726 20.4905 100.696 20.4174 100.696 20.3411V18.3351C100.696 18.2588 100.726 18.1857 100.78 18.1317C100.834 18.0778 100.908 18.0475 100.984 18.0475H106.939C107.176 18.0475 107.402 18.1414 107.57 18.3086C107.737 18.4758 107.831 18.7026 107.831 18.9391V19.8522Z" fill="white"/>
<path d="M132.638 16.4082H124.41C124.247 16.4119 124.092 16.4782 123.977 16.5934C123.862 16.7085 123.795 16.8637 123.792 17.0265V25.0217C123.795 25.1846 123.862 25.3397 123.977 25.4549C124.092 25.5701 124.247 25.6364 124.41 25.6401H132.638C133.298 25.6399 133.931 25.3777 134.397 24.9112C134.864 24.4447 135.126 23.8121 135.127 23.1524V18.9031C135.127 18.2427 134.865 17.6092 134.398 17.1415C133.932 16.6738 133.299 16.4101 132.638 16.4082ZM133.264 18.8959V23.1452C133.264 23.3816 133.17 23.6084 133.002 23.7756C132.835 23.9428 132.608 24.0367 132.372 24.0367H125.913C125.847 24.036 125.783 24.0092 125.736 23.9622C125.689 23.9152 125.662 23.8516 125.661 23.7851V18.2632C125.662 18.1967 125.689 18.1331 125.736 18.0861C125.783 18.0391 125.847 18.0123 125.913 18.0116H132.372C132.607 18.0112 132.833 18.104 133 18.2697C133.168 18.4355 133.262 18.6606 133.264 18.8959Z" fill="white"/>
<path d="M122.777 24.5184L122.518 24.1086H122.532L117.67 16.8971C117.39 16.4801 117.008 16.25 116.606 16.25H116.577C116.167 16.25 115.786 16.4801 115.505 16.8971L110.766 23.9289L110.65 24.1086H110.658L110.399 24.5184C110.341 24.5997 110.302 24.6928 110.284 24.7911C110.267 24.8893 110.272 24.9902 110.298 25.0864C110.325 25.1833 110.372 25.2732 110.436 25.3501C110.501 25.4271 110.581 25.4892 110.672 25.5322L110.859 25.6257C111.051 25.7134 111.268 25.7319 111.473 25.6782C111.677 25.6245 111.857 25.5018 111.981 25.3309L113.455 23.1092H119.734L121.209 25.3309C121.293 25.4503 121.405 25.5474 121.536 25.6138C121.666 25.6802 121.81 25.7139 121.957 25.712C122.086 25.7125 122.214 25.6829 122.331 25.6257L122.518 25.5322C122.608 25.4892 122.689 25.4271 122.753 25.3501C122.818 25.2732 122.865 25.1833 122.892 25.0864C122.912 24.9889 122.913 24.8882 122.893 24.7906C122.873 24.6929 122.833 24.6003 122.777 24.5184ZM118.397 21.3908C118.373 21.4367 118.336 21.475 118.292 21.5016C118.247 21.5283 118.197 21.5422 118.145 21.5418H115.023C114.972 21.5422 114.921 21.5283 114.876 21.5016C114.832 21.475 114.796 21.4367 114.772 21.3908C114.747 21.3462 114.736 21.2957 114.738 21.245C114.741 21.1942 114.757 21.1452 114.786 21.1032L116.411 18.6874L116.462 18.6083C116.472 18.5915 116.487 18.5779 116.505 18.5691C116.523 18.5602 116.543 18.5564 116.563 18.558H116.584C116.605 18.5563 116.626 18.5601 116.645 18.5689C116.664 18.5777 116.68 18.5913 116.692 18.6083L118.368 21.096C118.402 21.1366 118.422 21.1864 118.428 21.239C118.433 21.2916 118.422 21.3445 118.397 21.3908Z" fill="white"/>
<path d="M139.139 18.0259H146.087C146.168 18.0259 146.249 18.0099 146.324 17.9788C146.399 17.9477 146.467 17.9022 146.524 17.8448C146.582 17.7874 146.627 17.7192 146.658 17.6442C146.69 17.5691 146.706 17.4887 146.706 17.4075V17.0624C146.706 16.8984 146.64 16.7412 146.524 16.6252C146.408 16.5092 146.251 16.4441 146.087 16.4441H138.873C138.212 16.4456 137.578 16.709 137.11 17.1765C136.642 17.6441 136.379 18.2778 136.377 18.939V23.1451C136.379 23.8063 136.642 24.44 137.11 24.9076C137.578 25.3752 138.212 25.6385 138.873 25.64H146.087C146.167 25.6401 146.247 25.6244 146.321 25.5937C146.395 25.563 146.463 25.518 146.519 25.4612C146.576 25.4045 146.621 25.337 146.652 25.2629C146.683 25.1887 146.698 25.1092 146.698 25.0289V24.6838C146.698 24.5198 146.633 24.3625 146.517 24.2465C146.401 24.1306 146.244 24.0654 146.08 24.0654H139.139C138.897 24.065 138.665 23.9687 138.494 23.7976C138.323 23.6264 138.226 23.3944 138.226 23.1523V21.7359C138.226 21.6634 138.255 21.5939 138.306 21.5427C138.357 21.4914 138.427 21.4627 138.499 21.4627H145.051C145.215 21.4627 145.373 21.3975 145.489 21.2816C145.605 21.1656 145.67 21.0083 145.67 20.8443V20.4992C145.67 20.3352 145.605 20.1779 145.489 20.062C145.373 19.946 145.215 19.8809 145.051 19.8809H138.499C138.427 19.8809 138.357 19.8521 138.306 19.8009C138.255 19.7496 138.226 19.6801 138.226 19.6077V18.9174C138.233 18.6795 138.332 18.4537 138.503 18.2875C138.673 18.1212 138.901 18.0274 139.139 18.0259Z" fill="white"/>
<path d="M96.9281 16.4514H88.0673C87.6214 16.4514 87.3696 16.6958 87.3696 17.1416V17.3213C87.3696 17.7815 87.607 18.0188 88.0673 18.0188H91.1024C91.2205 18.0193 91.3336 18.0665 91.4171 18.15C91.5006 18.2334 91.5478 18.3465 91.5483 18.4645V24.9355C91.5483 25.3813 91.7929 25.6257 92.2388 25.6257H92.7279C93.1738 25.6257 93.4183 25.3813 93.4183 24.9355V18.4645C93.4189 18.3465 93.466 18.2334 93.5496 18.15C93.6331 18.0665 93.7461 18.0193 93.8642 18.0188H96.9281C97.3741 18.0188 97.6186 17.7671 97.6186 17.3213V17.1416C97.6186 16.6958 97.3741 16.4514 96.9281 16.4514Z" fill="white"/>
<path d="M64.0373 16.4441H63.7712C63.6654 16.4439 63.5605 16.4646 63.4627 16.505C63.3649 16.5454 63.276 16.6047 63.2012 16.6795C63.1263 16.7543 63.067 16.8432 63.0266 16.941C62.9862 17.0388 62.9655 17.1436 62.9657 17.2494V22.8431C62.9645 23.1689 62.8346 23.4809 62.6042 23.7113C62.3738 23.9416 62.0616 24.0715 61.7358 24.0726H56.6293C56.3035 24.0715 55.9913 23.9416 55.7609 23.7113C55.5305 23.4809 55.4006 23.1689 55.3994 22.8431V22.7569C55.3994 22.6634 55.4066 22.0235 55.4066 17.2422C55.4066 17.0324 55.3233 16.8313 55.1749 16.6829C55.0265 16.5346 54.8253 16.4513 54.6155 16.4513H54.3422C54.2363 16.4511 54.1315 16.4718 54.0337 16.5122C53.9358 16.5526 53.847 16.6119 53.7721 16.6867C53.6973 16.7615 53.638 16.8504 53.5976 16.9482C53.5571 17.046 53.5364 17.1508 53.5366 17.2566V23.1595C53.5381 23.8207 53.8016 24.4544 54.2693 24.922C54.737 25.3895 55.3709 25.6529 56.0323 25.6544H62.3399C62.9976 25.6531 63.628 25.3913 64.093 24.9264C64.5581 24.4615 64.8199 23.8313 64.8213 23.1739C64.8213 23.1739 64.8285 22.6993 64.8285 22.6634V17.2566C64.8314 17.1509 64.813 17.0457 64.7746 16.9473C64.7361 16.8488 64.6783 16.7591 64.6045 16.6833C64.5308 16.6076 64.4426 16.5474 64.3451 16.5063C64.2477 16.4652 64.1431 16.4441 64.0373 16.4441Z" fill="#3A9A40"/>
<path d="M69.0074 18.0259H75.9552C76.0364 18.0259 76.1168 18.0099 76.1919 17.9788C76.2669 17.9477 76.3351 17.9022 76.3925 17.8448C76.45 17.7874 76.4955 17.7192 76.5266 17.6442C76.5577 17.5691 76.5737 17.4887 76.5737 17.4075V17.0624C76.5737 16.8984 76.5085 16.7412 76.3925 16.6252C76.2765 16.5092 76.1192 16.4441 75.9552 16.4441H68.7413C68.0799 16.4456 67.446 16.709 66.9783 17.1765C66.5106 17.6441 66.2471 18.2778 66.2456 18.939V23.1451C66.2471 23.8063 66.5106 24.44 66.9783 24.9076C67.446 25.3752 68.0799 25.6385 68.7413 25.64H75.9552C76.0355 25.6401 76.115 25.6244 76.1892 25.5937C76.2634 25.563 76.3309 25.518 76.3877 25.4612C76.4444 25.4045 76.4895 25.337 76.5202 25.2629C76.5508 25.1887 76.5666 25.1092 76.5665 25.0289V24.6838C76.5665 24.5198 76.5013 24.3625 76.3853 24.2465C76.2693 24.1306 76.112 24.0654 75.948 24.0654H69.0074C68.7653 24.065 68.5332 23.9687 68.362 23.7976C68.1908 23.6264 68.0944 23.3944 68.094 23.1523V21.7359C68.094 21.6634 68.1228 21.5939 68.1741 21.5427C68.2253 21.4914 68.2948 21.4627 68.3673 21.4627H74.9195C75.0835 21.4627 75.2408 21.3975 75.3568 21.2816C75.4728 21.1656 75.538 21.0083 75.538 20.8443V20.4992C75.538 20.3352 75.4728 20.1779 75.3568 20.062C75.2408 19.946 75.0835 19.8809 74.9195 19.8809H68.3673C68.2948 19.8809 68.2253 19.8521 68.1741 19.8009C68.1228 19.7496 68.094 19.6801 68.094 19.6077V18.9174C68.1013 18.6795 68.2005 18.4537 68.3708 18.2875C68.5412 18.1212 68.7694 18.0274 69.0074 18.0259Z" fill="#3A9A40"/>
<path d="M85.5212 19.8881H80.3787C80.1366 19.8877 79.9045 19.7914 79.7333 19.6202C79.5621 19.449 79.4657 19.217 79.4653 18.9749V18.9318C79.4657 18.6897 79.5621 18.4577 79.7333 18.2865C79.9045 18.1154 80.1366 18.0191 80.3787 18.0187H85.5572C85.7212 18.0187 85.8785 17.9535 85.9945 17.8376C86.1105 17.7216 86.1757 17.5643 86.1757 17.4003V17.0552C86.1757 16.8912 86.1105 16.734 85.9945 16.618C85.8785 16.502 85.7212 16.4369 85.5572 16.4369H80.0982C79.4368 16.4384 78.8029 16.7018 78.3352 17.1693C77.8675 17.6369 77.6041 18.2706 77.6025 18.9318V18.9677C77.6041 19.629 77.8675 20.2627 78.3352 20.7302C78.8029 21.1978 79.4368 21.4611 80.0982 21.4627H80.1989V21.4698L80.3212 21.4627H85.2479C85.4859 21.464 85.7138 21.5591 85.8822 21.7274C86.0505 21.8956 86.1456 22.1234 86.1469 22.3614V23.1595C86.1466 23.4015 86.0502 23.6336 85.879 23.8047C85.7078 23.9759 85.4757 24.0722 85.2335 24.0726H84.3273C84.3035 24.069 84.2792 24.069 84.2554 24.0726H78.2211C78.057 24.0726 77.8997 24.1377 77.7837 24.2537C77.6677 24.3697 77.6025 24.5269 77.6025 24.6909V25.0289C77.6025 25.1929 77.6677 25.3501 77.7837 25.4661C77.8997 25.5821 78.057 25.6472 78.2211 25.6472H80.1989V25.6544H85.5068C86.1683 25.6529 86.8022 25.3895 87.2699 24.922C87.7376 24.4544 88.001 23.8207 88.0025 23.1595V22.3686C88.0012 21.7111 87.7394 21.081 87.2743 20.6161C86.8093 20.1512 86.1789 19.8894 85.5212 19.8881Z" fill="#3A9A40"/>
<path d="M52.1346 23.1523V18.939C52.1331 18.2778 51.8696 17.6441 51.4019 17.1765C50.9342 16.709 50.3003 16.4456 49.6389 16.4441H43.3097C42.6482 16.4456 42.0143 16.709 41.5466 17.1765C41.0789 17.6441 40.8155 18.2778 40.814 18.939V23.1451C40.8155 23.8063 41.0789 24.44 41.5466 24.9076C42.0143 25.3752 42.6482 25.6385 43.3097 25.64H49.2649C49.313 25.6395 49.3605 25.6518 49.4022 25.6759C49.444 25.6999 49.4785 25.7347 49.5022 25.7766C49.7108 26.1505 50.1639 26.9342 50.1639 26.9342C50.2338 27.0552 50.3345 27.1556 50.4558 27.225C50.5771 27.2945 50.7146 27.3306 50.8544 27.3296C50.9935 27.3296 51.1301 27.2924 51.2499 27.2218L51.4945 27.078C51.6746 26.9721 51.8058 26.7996 51.8597 26.5978C51.9135 26.3959 51.8857 26.181 51.7822 25.9995L51.3003 25.1655C51.2836 25.1356 51.2773 25.1009 51.2825 25.0671C51.2878 25.0332 51.3041 25.0021 51.329 24.9785C51.5821 24.7462 51.7844 24.464 51.923 24.1497C52.0616 23.8354 52.1337 23.4958 52.1346 23.1523ZM50.2718 19.1691V22.915C50.271 23.218 50.1503 23.5083 49.936 23.7226C49.7217 23.9368 49.4313 24.0575 49.1282 24.0582H43.8203C43.6701 24.0584 43.5213 24.029 43.3825 23.9716C43.2437 23.9142 43.1175 23.83 43.0113 23.7238C42.9051 23.6176 42.8208 23.4915 42.7634 23.3527C42.706 23.214 42.6766 23.0652 42.6768 22.915V19.1691C42.6766 19.0189 42.706 18.8702 42.7634 18.7314C42.8208 18.5926 42.9051 18.4665 43.0113 18.3603C43.1175 18.2541 43.2437 18.1699 43.3825 18.1125C43.5213 18.0551 43.6701 18.0257 43.8203 18.0259H49.1282C49.2786 18.025 49.4277 18.054 49.5669 18.1111C49.706 18.1683 49.8324 18.2525 49.9388 18.3588C50.0451 18.4651 50.1293 18.5915 50.1865 18.7306C50.2437 18.8697 50.2726 19.0187 50.2718 19.1691Z" fill="#3A9A40"/>
</svg>
