<svg width="161" height="40" viewBox="0 0 161 40" fill="none" xmlns="http://www.w3.org/2000/svg">
<path d="M21.9707 20.9286C23.658 17.8225 25.8804 15.4714 27.9 14.38L25.8718 11.1877C25.7121 10.9374 25.4575 10.9374 25.3065 11.1877L14.2074 28.6765C14.0477 28.9267 14.1815 29 14.4706 29H19.7656C19.6836 26.7395 20.3611 23.875 21.9707 20.9286Z" fill="#3A9A40"/>
<path d="M28.5908 16.3687C27.5033 15.7734 25.1557 17.9778 23.3476 21.2952C21.5395 24.6127 20.9612 27.7791 22.0487 28.3787C22.8384 28.8058 24.1675 27.6799 25.5873 25.8292V21.5929C25.5873 21.1529 25.8635 20.9113 26.0706 21.2952L27.253 23.5299C27.2703 23.504 27.2789 23.4824 27.2962 23.4565C29.1043 20.1391 29.6825 16.9683 28.5908 16.3687Z" fill="#3A9A40"/>
<path d="M36.9797 28.6765L32.5004 21.6145C32.0748 23.0479 31.4976 24.4319 30.7786 25.743C30.3929 26.4474 29.9709 27.1314 29.5142 27.7921L30.36 29H36.7165C37.0056 29 37.1394 28.9267 36.9797 28.6765Z" fill="#3A9A40"/>
<path d="M108.83 22.0307C109.31 21.8587 109.724 21.5423 110.017 21.1252C110.309 20.708 110.465 20.2105 110.463 19.7012V18.8959C110.463 18.2362 110.201 17.6035 109.734 17.137C109.267 16.6706 108.634 16.4084 107.974 16.4082H100.315C100.107 16.4088 99.9079 16.4915 99.761 16.6384C99.6141 16.7852 99.5313 16.9842 99.5308 17.1919V24.8492C99.5313 25.0569 99.6141 25.2559 99.761 25.4027C99.9079 25.5496 100.107 25.6323 100.315 25.6329H100.617C100.825 25.6323 101.024 25.5496 101.171 25.4027C101.317 25.2559 101.4 25.0569 101.401 24.8492V22.5484C101.401 22.5059 101.409 22.4637 101.425 22.4244C101.441 22.385 101.465 22.3493 101.495 22.3192C101.525 22.2891 101.561 22.2653 101.6 22.2491C101.64 22.2329 101.682 22.2247 101.724 22.2249H106.421C106.507 22.225 106.591 22.2477 106.666 22.2905C106.74 22.3334 106.802 22.3951 106.845 22.4693L108.478 25.3165C108.547 25.4354 108.645 25.5344 108.764 25.6038C108.882 25.6731 109.017 25.7104 109.154 25.712C109.302 25.7139 109.447 25.6713 109.571 25.5898L109.614 25.5466C109.792 25.4385 109.921 25.2659 109.974 25.0649C110.022 24.8591 109.989 24.6425 109.88 24.4609L108.687 22.4118C108.669 22.3791 108.658 22.3431 108.654 22.3061C108.65 22.2691 108.654 22.2317 108.665 22.1961C108.679 22.1585 108.702 22.1243 108.73 22.0958C108.759 22.0674 108.793 22.0452 108.83 22.0307ZM108.564 19.8522C108.564 20.3842 108.133 20.6287 107.708 20.6287H101.717C101.641 20.6287 101.568 20.5984 101.514 20.5445C101.46 20.4905 101.43 20.4174 101.43 20.3411V18.3351C101.43 18.2588 101.46 18.1857 101.514 18.1317C101.568 18.0778 101.641 18.0475 101.717 18.0475H107.672C107.909 18.0475 108.136 18.1414 108.303 18.3086C108.47 18.4758 108.564 18.7026 108.564 18.9391V19.8522Z" fill="#111111"/>
<path d="M133.371 16.4082H125.143C124.981 16.4119 124.825 16.4782 124.71 16.5934C124.595 16.7085 124.529 16.8637 124.525 17.0265V25.0217C124.529 25.1846 124.595 25.3397 124.71 25.4549C124.825 25.5701 124.981 25.6364 125.143 25.6401H133.371C134.031 25.6399 134.664 25.3777 135.131 24.9112C135.597 24.4447 135.86 23.8121 135.86 23.1524V18.9031C135.86 18.2427 135.598 17.6092 135.131 17.1415C134.665 16.6738 134.032 16.4101 133.371 16.4082ZM133.997 18.8959V23.1452C133.997 23.3816 133.903 23.6084 133.736 23.7756C133.569 23.9428 133.342 24.0367 133.105 24.0367H126.647C126.58 24.036 126.516 24.0092 126.469 23.9622C126.422 23.9152 126.396 23.8516 126.395 23.7851V18.2632C126.396 18.1967 126.422 18.1331 126.469 18.0861C126.516 18.0391 126.58 18.0123 126.647 18.0116H133.105C133.341 18.0112 133.567 18.104 133.734 18.2697C133.901 18.4355 133.996 18.6606 133.997 18.8959Z" fill="#111111"/>
<path d="M123.51 24.5184L123.251 24.1086H123.265L118.404 16.8971C118.123 16.4801 117.742 16.25 117.339 16.25H117.31C116.9 16.25 116.519 16.4801 116.239 16.8971L111.499 23.9289L111.384 24.1086H111.391L111.132 24.5184C111.074 24.5997 111.035 24.6928 111.018 24.7911C111 24.8893 111.005 24.9902 111.031 25.0864C111.058 25.1833 111.105 25.2732 111.17 25.3501C111.234 25.4271 111.315 25.4892 111.405 25.5322L111.592 25.6257C111.785 25.7134 112.002 25.7319 112.206 25.6782C112.41 25.6245 112.59 25.5018 112.714 25.3309L114.189 23.1092H120.468L121.942 25.3309C122.027 25.4503 122.139 25.5474 122.269 25.6138C122.399 25.6802 122.544 25.7139 122.69 25.712C122.82 25.7125 122.948 25.6829 123.064 25.6257L123.251 25.5322C123.342 25.4892 123.422 25.4271 123.487 25.3501C123.551 25.2732 123.599 25.1833 123.625 25.0864C123.646 24.9889 123.646 24.8882 123.626 24.7906C123.606 24.6929 123.567 24.6003 123.51 24.5184ZM119.13 21.3908C119.106 21.4367 119.07 21.475 119.025 21.5016C118.981 21.5283 118.93 21.5422 118.878 21.5418H115.757C115.705 21.5422 115.654 21.5283 115.61 21.5016C115.565 21.475 115.529 21.4367 115.505 21.3908C115.481 21.3462 115.469 21.2957 115.472 21.245C115.474 21.1942 115.491 21.1452 115.519 21.1032L117.145 18.6874L117.195 18.6083C117.206 18.5915 117.221 18.5779 117.239 18.5691C117.256 18.5602 117.276 18.5564 117.296 18.558H117.318C117.338 18.5563 117.359 18.5601 117.378 18.5689C117.397 18.5777 117.413 18.5913 117.425 18.6083L119.101 21.096C119.135 21.1366 119.156 21.1864 119.161 21.239C119.166 21.2916 119.155 21.3445 119.13 21.3908Z" fill="#111111"/>
<path d="M139.873 18.0259H146.82C146.902 18.0259 146.982 18.0099 147.057 17.9788C147.132 17.9477 147.2 17.9022 147.258 17.8448C147.315 17.7874 147.361 17.7192 147.392 17.6442C147.423 17.5691 147.439 17.4887 147.439 17.4075V17.0624C147.439 16.8984 147.374 16.7412 147.258 16.6252C147.142 16.5092 146.984 16.4441 146.82 16.4441H139.607C138.945 16.4456 138.311 16.709 137.843 17.1765C137.376 17.6441 137.112 18.2778 137.111 18.939V23.1451C137.112 23.8063 137.376 24.44 137.843 24.9076C138.311 25.3752 138.945 25.6385 139.607 25.64H146.82C146.901 25.6401 146.98 25.6244 147.054 25.5937C147.129 25.563 147.196 25.518 147.253 25.4612C147.31 25.4045 147.355 25.337 147.385 25.2629C147.416 25.1887 147.432 25.1092 147.432 25.0289V24.6838C147.432 24.5198 147.367 24.3625 147.251 24.2465C147.135 24.1306 146.977 24.0654 146.813 24.0654H139.873C139.631 24.065 139.398 23.9687 139.227 23.7976C139.056 23.6264 138.96 23.3944 138.959 23.1523V21.7359C138.959 21.6634 138.988 21.5939 139.039 21.5427C139.091 21.4914 139.16 21.4627 139.233 21.4627H145.785C145.949 21.4627 146.106 21.3975 146.222 21.2816C146.338 21.1656 146.403 21.0083 146.403 20.8443V20.4992C146.403 20.3352 146.338 20.1779 146.222 20.062C146.106 19.946 145.949 19.8809 145.785 19.8809H139.233C139.16 19.8809 139.091 19.8521 139.039 19.8009C138.988 19.7496 138.959 19.6801 138.959 19.6077V18.9174C138.967 18.6795 139.066 18.4537 139.236 18.2875C139.406 18.1212 139.635 18.0274 139.873 18.0259Z" fill="#111111"/>
<path d="M97.6615 16.4514H88.8007C88.3548 16.4514 88.103 16.6958 88.103 17.1416V17.3213C88.103 17.7815 88.3404 18.0188 88.8007 18.0188H91.8358C91.9539 18.0193 92.067 18.0665 92.1505 18.15C92.234 18.2334 92.2812 18.3465 92.2817 18.4645V24.9355C92.2817 25.3813 92.5263 25.6257 92.9722 25.6257H93.4613C93.9072 25.6257 94.1517 25.3813 94.1517 24.9355V18.4645C94.1523 18.3465 94.1994 18.2334 94.2829 18.15C94.3665 18.0665 94.4795 18.0193 94.5976 18.0188H97.6615C98.1075 18.0188 98.352 17.7671 98.352 17.3213V17.1416C98.352 16.6958 98.1075 16.4514 97.6615 16.4514Z" fill="#111111"/>
<path d="M64.7707 16.4441H64.5046C64.3988 16.4439 64.2939 16.4646 64.1961 16.505C64.0983 16.5454 64.0094 16.6047 63.9346 16.6795C63.8597 16.7543 63.8004 16.8432 63.76 16.941C63.7196 17.0388 63.6989 17.1436 63.6991 17.2494V22.8431C63.6979 23.1689 63.568 23.4809 63.3376 23.7113C63.1072 23.9416 62.795 24.0715 62.4692 24.0726H57.3627C57.0369 24.0715 56.7247 23.9416 56.4943 23.7113C56.2639 23.4809 56.134 23.1689 56.1328 22.8431V22.7569C56.1328 22.6634 56.14 22.0235 56.14 17.2422C56.14 17.0324 56.0567 16.8313 55.9083 16.6829C55.7599 16.5346 55.5587 16.4513 55.3489 16.4513H55.0756C54.9697 16.4511 54.8649 16.4718 54.7671 16.5122C54.6692 16.5526 54.5804 16.6119 54.5055 16.6867C54.4307 16.7615 54.3714 16.8504 54.331 16.9482C54.2905 17.046 54.2698 17.1508 54.27 17.2566V23.1595C54.2715 23.8207 54.535 24.4544 55.0027 24.922C55.4704 25.3895 56.1043 25.6529 56.7657 25.6544H63.0733C63.731 25.6531 64.3614 25.3913 64.8264 24.9264C65.2915 24.4615 65.5533 23.8313 65.5547 23.1739C65.5547 23.1739 65.5619 22.6993 65.5619 22.6634V17.2566C65.5648 17.1509 65.5464 17.0457 65.508 16.9473C65.4695 16.8488 65.4117 16.7591 65.3379 16.6833C65.2642 16.6076 65.176 16.5474 65.0785 16.5063C64.9811 16.4652 64.8765 16.4441 64.7707 16.4441Z" fill="#3A9A40"/>
<path d="M69.7408 18.0259H76.6886C76.7698 18.0259 76.8502 18.0099 76.9253 17.9788C77.0003 17.9477 77.0685 17.9022 77.1259 17.8448C77.1834 17.7874 77.2289 17.7192 77.26 17.6442C77.2911 17.5691 77.3071 17.4887 77.3071 17.4075V17.0624C77.3071 16.8984 77.2419 16.7412 77.1259 16.6252C77.0099 16.5092 76.8526 16.4441 76.6886 16.4441H69.4747C68.8133 16.4456 68.1794 16.709 67.7117 17.1765C67.244 17.6441 66.9805 18.2778 66.979 18.939V23.1451C66.9805 23.8063 67.244 24.44 67.7117 24.9076C68.1794 25.3752 68.8133 25.6385 69.4747 25.64H76.6886C76.7689 25.6401 76.8484 25.6244 76.9226 25.5937C76.9968 25.563 77.0643 25.518 77.121 25.4612C77.1778 25.4045 77.2229 25.337 77.2536 25.2629C77.2842 25.1887 77.3 25.1092 77.2999 25.0289V24.6838C77.2999 24.5198 77.2347 24.3625 77.1187 24.2465C77.0027 24.1306 76.8454 24.0654 76.6814 24.0654H69.7408C69.4987 24.065 69.2666 23.9687 69.0954 23.7976C68.9242 23.6264 68.8278 23.3944 68.8274 23.1523V21.7359C68.8274 21.6634 68.8562 21.5939 68.9075 21.5427C68.9587 21.4914 69.0282 21.4627 69.1007 21.4627H75.6529C75.8169 21.4627 75.9742 21.3975 76.0902 21.2816C76.2062 21.1656 76.2714 21.0083 76.2714 20.8443V20.4992C76.2714 20.3352 76.2062 20.1779 76.0902 20.062C75.9742 19.946 75.8169 19.8809 75.6529 19.8809H69.1007C69.0282 19.8809 68.9587 19.8521 68.9075 19.8009C68.8562 19.7496 68.8274 19.6801 68.8274 19.6077V18.9174C68.8347 18.6795 68.9339 18.4537 69.1042 18.2875C69.2746 18.1212 69.5028 18.0274 69.7408 18.0259Z" fill="#3A9A40"/>
<path d="M86.2546 19.8881H81.1121C80.87 19.8877 80.6379 19.7914 80.4667 19.6202C80.2955 19.449 80.1991 19.217 80.1987 18.9749V18.9318C80.1991 18.6897 80.2955 18.4577 80.4667 18.2865C80.6379 18.1154 80.87 18.0191 81.1121 18.0187H86.2906C86.4546 18.0187 86.6119 17.9535 86.7279 17.8376C86.8439 17.7216 86.9091 17.5643 86.9091 17.4003V17.0552C86.9091 16.8912 86.8439 16.734 86.7279 16.618C86.6119 16.502 86.4546 16.4369 86.2906 16.4369H80.8316C80.1702 16.4384 79.5363 16.7018 79.0686 17.1693C78.6009 17.6369 78.3375 18.2706 78.3359 18.9318V18.9677C78.3375 19.629 78.6009 20.2627 79.0686 20.7302C79.5363 21.1978 80.1702 21.4611 80.8316 21.4627H80.9323V21.4698L81.0546 21.4627H85.9813C86.2193 21.464 86.4472 21.5591 86.6156 21.7274C86.7839 21.8956 86.879 22.1234 86.8803 22.3614V23.1595C86.88 23.4015 86.7836 23.6336 86.6124 23.8047C86.4412 23.9759 86.2091 24.0722 85.9669 24.0726H85.0607C85.0369 24.069 85.0126 24.069 84.9888 24.0726H78.9545C78.7904 24.0726 78.6331 24.1377 78.5171 24.2537C78.4011 24.3697 78.3359 24.5269 78.3359 24.6909V25.0289C78.3359 25.1929 78.4011 25.3501 78.5171 25.4661C78.6331 25.5821 78.7904 25.6472 78.9545 25.6472H80.9323V25.6544H86.2402C86.9017 25.6529 87.5356 25.3895 88.0033 24.922C88.471 24.4544 88.7344 23.8207 88.7359 23.1595V22.3686C88.7346 21.7111 88.4728 21.081 88.0077 20.6161C87.5427 20.1512 86.9123 19.8894 86.2546 19.8881Z" fill="#3A9A40"/>
<path d="M52.868 23.1523V18.939C52.8665 18.2778 52.603 17.6441 52.1353 17.1765C51.6676 16.709 51.0337 16.4456 50.3723 16.4441H44.0431C43.3816 16.4456 42.7477 16.709 42.28 17.1765C41.8123 17.6441 41.5489 18.2778 41.5474 18.939V23.1451C41.5489 23.8063 41.8123 24.44 42.28 24.9076C42.7477 25.3752 43.3816 25.6385 44.0431 25.64H49.9983C50.0464 25.6395 50.0939 25.6518 50.1356 25.6759C50.1774 25.6999 50.2119 25.7347 50.2356 25.7766C50.4442 26.1505 50.8973 26.9342 50.8973 26.9342C50.9672 27.0552 51.0679 27.1556 51.1892 27.225C51.3105 27.2945 51.448 27.3306 51.5878 27.3296C51.7269 27.3296 51.8635 27.2924 51.9833 27.2218L52.2279 27.078C52.408 26.9721 52.5392 26.7996 52.5931 26.5978C52.6469 26.3959 52.6191 26.181 52.5156 25.9995L52.0337 25.1655C52.017 25.1356 52.0107 25.1009 52.0159 25.0671C52.0211 25.0332 52.0375 25.0021 52.0624 24.9785C52.3155 24.7462 52.5178 24.464 52.6564 24.1497C52.795 23.8354 52.8671 23.4958 52.868 23.1523ZM51.0052 19.1691V22.915C51.0044 23.218 50.8837 23.5083 50.6694 23.7226C50.4551 23.9368 50.1647 24.0575 49.8616 24.0582H44.5537C44.4035 24.0584 44.2547 24.029 44.1159 23.9716C43.977 23.9142 43.8509 23.83 43.7447 23.7238C43.6385 23.6176 43.5542 23.4915 43.4968 23.3527C43.4394 23.214 43.41 23.0652 43.4102 22.915V19.1691C43.41 19.0189 43.4394 18.8702 43.4968 18.7314C43.5542 18.5926 43.6385 18.4665 43.7447 18.3603C43.8509 18.2541 43.977 18.1699 44.1159 18.1125C44.2547 18.0551 44.4035 18.0257 44.5537 18.0259H49.8616C50.012 18.025 50.1611 18.054 50.3003 18.1111C50.4394 18.1683 50.5658 18.2525 50.6722 18.3588C50.7785 18.4651 50.8627 18.5915 50.9199 18.7306C50.9771 18.8697 51.006 19.0187 51.0052 19.1691Z" fill="#3A9A40"/>
</svg>
