<svg width="161" height="40" viewBox="0 0 161 40" fill="none" xmlns="http://www.w3.org/2000/svg">
<mask id="mask0_144_426" style="mask-type:luminance" maskUnits="userSpaceOnUse" x="40" y="10" width="80" height="21">
<path d="M119.821 10.0002H40.7334V30.0002H119.821V10.0002Z" fill="white"/>
</mask>
<g mask="url(#mask0_144_426)">
<path d="M99.64 15.6897L98.3395 18.0698L96.4116 21.5907H98.3395H100.26L99.7012 15.6897H99.64Z" fill="#00509E"/>
<path d="M40.7334 10.0002V12.9168H44.9792V13.4381H40.7334V16.2715H44.9792V16.8004H40.7334V19.7245H44.9792V20.2534H40.7334V23.2228H44.9792V23.7441H40.7334V26.6228H44.9792V27.1442H40.7334V30.0305H119.821V10.0002H40.7334ZM60.0119 17.0875H56.0338C56.1127 16.8751 56.1317 16.6454 56.0885 16.4231C56.0455 16.2008 55.9419 15.9943 55.789 15.8257C55.5931 15.6573 55.3645 15.5303 55.1172 15.4523C54.8699 15.3744 54.6091 15.3471 54.3507 15.3724C53.9229 15.3548 53.5003 15.4709 53.1432 15.7042C52.7861 15.9375 52.5126 16.2762 52.3617 16.6719C52.1398 17.7146 53.3409 18.0471 54.3354 18.3267C56.6305 18.9387 60.0731 19.1729 59.2468 23.0036C58.6042 26.0259 55.307 27.4162 51.9792 27.4162C48.6514 27.4162 45.859 26.4491 46.6623 22.5956H50.6787C50.3726 23.933 51.2065 24.6583 52.6447 24.6583C53.5628 24.6583 54.8403 24.1899 55.0392 23.2454C55.4524 21.3187 52.4152 21.7343 49.5847 20.3743C48.2612 19.7396 47.8251 18.44 48.1541 16.9062C49.0033 13.5439 52.2087 12.6221 55.1999 12.6221C58.1911 12.6221 60.9911 13.6648 60.0119 17.0875ZM72.2521 21.3565H65.8107L65.1604 24.3788H72.0991L71.5101 27.1366H60.6239L63.6839 12.9319H74.6007L74.1953 14.7981L74.004 15.667H67.0271L66.3998 18.5987H72.8182L72.2521 21.3565ZM82.3274 27.1215L79.7493 16.2413L77.3777 27.1215H73.7898L74.1953 25.2477L76.8499 12.9168H82.4269L84.9744 23.4948L85.0203 23.4494L87.3153 12.9092H90.9032L90.1382 16.5888L87.8432 27.114L82.3274 27.1215ZM101.032 27.1215L100.65 24.3561H94.8125L93.2824 27.1291H89.2891L90.0541 25.837L98.0256 12.9168H102.891L105.507 27.1215H101.032ZM111.038 27.1215H107.022L110.082 12.9168H114.06L111.038 27.1215ZM119.851 27.1215H115.575V26.6228H119.821L119.851 27.1215ZM119.851 23.7517H115.575V23.2228H119.821L119.851 23.7517ZM119.851 20.2609H115.575V19.732H119.821L119.851 20.2609ZM119.851 16.808H115.575V16.2715H119.821L119.851 16.808ZM119.851 13.4457H115.575V12.9168H119.821L119.851 13.4457Z" fill="#00509E"/>
</g>
</svg>
