<svg width="218" height="36" viewBox="0 0 218 36" fill="none" xmlns="http://www.w3.org/2000/svg">
<path d="M44.4683 26.9705L46.4543 24.5248C48.5787 26.5342 51.4036 27.6315 54.3252 27.582C55.274 27.6094 56.2193 27.453 57.1089 27.1213C57.7708 26.8743 58.3532 26.4516 58.7938 25.8985C59.1559 25.4316 59.3559 24.8591 59.3635 24.268C59.3685 23.6428 59.1887 23.0301 58.8467 22.5071C58.372 21.8589 57.7534 21.33 57.0397 20.9622C55.8801 20.3379 54.6631 19.8274 53.4054 19.4377C51.7513 18.9009 50.1624 18.1803 48.6682 17.2895C47.6678 16.721 46.8276 15.9076 46.2264 14.9253C45.7555 14.0639 45.5157 13.0948 45.5305 12.1128C45.5216 10.9114 45.8872 9.73724 46.5764 8.75395C47.3309 7.70727 48.3471 6.87785 49.5229 6.34899C50.8781 5.72368 52.3572 5.41428 53.849 5.44407C55.3174 5.45649 56.7716 5.7326 58.1426 6.25931C59.5663 6.7805 60.8864 7.55061 62.0414 8.53383L60.092 11.0896C59.2347 10.25 58.2304 9.57573 57.1292 9.10043C56.0115 8.62318 54.8076 8.38174 53.5926 8.39117C52.0081 8.39117 50.8198 8.72813 50.0275 9.40206C49.6644 9.68095 49.3688 10.0385 49.163 10.4479C48.9573 10.8573 48.8465 11.308 48.8392 11.7663C48.8446 12.3008 49.0121 12.8211 49.3194 13.2582C49.768 13.8378 50.3448 14.3052 51.0043 14.6237C52.095 15.1816 53.2337 15.64 54.4066 15.9933C56.1641 16.5054 57.843 17.257 59.3961 18.2271C60.472 18.8885 61.3825 19.7879 62.0577 20.8562C62.5911 21.7523 62.8723 22.7764 62.8716 23.8196C62.882 25.0447 62.5247 26.2447 61.8461 27.264C61.0991 28.3594 60.0598 29.2224 58.8467 29.7546C57.3325 30.41 55.6932 30.7244 54.0444 30.6758C52.84 30.6738 51.6412 30.5121 50.4793 30.1948C49.3143 29.8894 48.1889 29.4489 47.1258 28.8823C46.1547 28.3732 45.2601 27.7296 44.4683 26.9705Z" fill="#EDEDED"/>
<path d="M66.7745 21.1783C66.7155 19.385 67.0794 17.6031 67.8367 15.977C68.4733 14.6454 69.4829 13.5279 70.7425 12.7609C72.0324 12.0391 73.4853 11.6601 74.9628 11.6601C76.4404 11.6601 77.8933 12.0391 79.1832 12.7609C80.4394 13.5295 81.446 14.6467 82.0808 15.977C82.8358 17.6038 83.1996 19.3852 83.143 21.1783C83.1976 22.9712 82.8339 24.7521 82.0808 26.3795C81.4483 27.7141 80.4359 28.8317 79.1709 29.5916C77.8777 30.303 76.4261 30.676 74.9506 30.676C73.4751 30.676 72.0235 30.303 70.7303 29.5916C69.4711 28.8295 68.4645 27.7122 67.8367 26.3795C67.0817 24.7527 66.7179 22.9713 66.7745 21.1783ZM70.1076 21.1783C70.0724 22.4064 70.2684 23.6303 70.6855 24.7857C71.0087 25.6804 71.5893 26.4592 72.3541 27.0236C73.1326 27.5215 74.0371 27.7861 74.9608 27.7861C75.8845 27.7861 76.789 27.5215 77.5675 27.0236C78.3299 26.4577 78.9088 25.6793 79.232 24.7857C79.6519 23.6308 79.8507 22.407 79.818 21.1783C79.8502 19.951 79.6514 18.7286 79.232 17.5749C78.9058 16.6774 78.3278 15.8932 77.5675 15.3167C76.7928 14.8085 75.8869 14.5378 74.9608 14.5378C74.0347 14.5378 73.1288 14.8085 72.3541 15.3167C71.5915 15.8918 71.0118 16.6763 70.6855 17.5749C70.2689 18.7291 70.0729 19.9515 70.1076 21.1783Z" fill="#EDEDED"/>
<path d="M88.1247 23.2405V12.0147H91.3805V22.8125C91.3805 24.4729 91.7413 25.6808 92.463 26.4363C92.8203 26.8123 93.2531 27.1081 93.733 27.3042C94.2129 27.5002 94.7288 27.592 95.2467 27.5735C96.2088 27.5695 97.152 27.3062 97.9775 26.8113C98.9094 26.2539 99.7473 25.5523 100.46 24.7324V27.2882C99.707 28.2641 98.7814 29.0931 97.7293 29.7339C96.7423 30.328 95.6171 30.6523 94.4659 30.6745C93.3147 30.6967 92.1778 30.4159 91.1688 29.8603C90.1915 29.2825 89.4124 28.4211 88.9345 27.3901C88.3494 26.0878 88.0723 24.6677 88.1247 23.2405ZM100.68 30.3087L99.9351 26.7542V12.0147H103.191V25.9716C103.191 26.4689 103.191 26.9254 103.244 27.3371C103.297 27.7488 103.345 28.2217 103.439 28.7393L103.724 30.3046L100.68 30.3087Z" fill="#EDEDED"/>
<path d="M106.906 27.6797L110.313 23.7014C110.731 24.2848 111.276 24.7645 111.908 25.1036C112.582 25.4727 113.338 25.6622 114.106 25.6539C114.67 25.6853 115.234 25.592 115.758 25.3807C116.282 25.1694 116.753 24.8451 117.138 24.431C117.858 23.6158 118.22 22.4418 118.22 20.8806V5.79865H123.894V21.6062C123.947 23.3486 123.497 25.0695 122.599 26.5628C121.758 27.9067 120.552 28.9837 119.124 29.6689C117.614 30.392 115.958 30.7574 114.285 30.7369C112.871 30.7584 111.469 30.4806 110.17 29.9216C108.952 29.3849 107.845 28.6245 106.906 27.6797ZM112.421 10.0746V5.79865H121.997V10.0746H112.421Z" fill="#EDEDED"/>
<path d="M129.054 23.2406V11.6601H134.373V22.4213C134.373 23.5816 134.651 24.4404 135.207 24.9974C135.502 25.2772 135.851 25.4938 136.232 25.634C136.614 25.7742 137.02 25.835 137.425 25.8127C138.156 25.807 138.877 25.6371 139.533 25.3154C140.258 24.9631 140.895 24.4535 141.397 23.8235V27.3412C140.7 28.3046 139.834 29.1332 138.842 29.787C137.835 30.4256 136.663 30.7531 135.472 30.7286C134.385 30.7328 133.316 30.4517 132.371 29.9133C131.353 29.3186 130.523 28.4501 129.974 27.4065C129.318 26.1188 129.002 24.685 129.054 23.2406ZM141.54 30.3087L140.864 26.7543V11.6723H146.183V25.8697C146.183 26.367 146.183 26.8113 146.236 27.1986C146.289 27.5858 146.338 28.0464 146.432 28.5682L146.717 30.3087H141.54Z" fill="#EDEDED"/>
<path d="M150.969 11.6609H156.15L156.822 15.2112V30.2932H151.503V16.0998C151.503 15.6025 151.503 15.1582 151.45 14.7669C151.397 14.3756 151.348 13.9232 151.254 13.4014L150.969 11.6609ZM156.293 18.1257V14.608C156.997 13.6336 157.881 12.8034 158.897 12.1622C159.925 11.528 161.113 11.2013 162.32 11.2206C163.466 11.2196 164.59 11.5294 165.574 12.1173C166.558 12.7051 167.364 13.5489 167.908 14.559C168.578 15.8449 168.902 17.2835 168.848 18.7331V30.3095H163.529V19.5442C163.554 18.8752 163.414 18.2102 163.122 17.608C162.876 17.1277 162.486 16.7369 162.007 16.4912C161.499 16.2473 160.942 16.1258 160.379 16.1365C159.597 16.1511 158.827 16.3366 158.124 16.6802C157.421 17.0238 156.802 17.5172 156.309 18.1257H156.293Z" fill="#EDEDED"/>
<path d="M173.597 6.29614C173.593 5.89852 173.668 5.50403 173.817 5.13537C173.965 4.76671 174.185 4.43114 174.464 4.14798C175.048 3.56552 175.838 3.23846 176.662 3.23846C177.486 3.23846 178.276 3.56552 178.859 4.14798C179.135 4.43234 179.353 4.76848 179.499 5.13712C179.645 5.50575 179.716 5.89962 179.71 6.29614C179.715 6.69347 179.641 7.08779 179.493 7.45644C179.345 7.82509 179.125 8.1608 178.847 8.4443C178.263 9.0201 177.476 9.34278 176.656 9.34278C175.836 9.34278 175.049 9.0201 174.464 8.4443C174.186 8.161 173.966 7.82541 173.817 7.45678C173.668 7.08815 173.594 6.69372 173.597 6.29614ZM174.004 30.3091V11.6605H179.328V30.3091H174.004Z" fill="#EDEDED"/>
<path d="M183.316 21.0036C183.265 19.1923 183.668 17.3971 184.488 15.782C185.228 14.3678 186.358 13.1964 187.744 12.4069C189.203 11.6254 190.832 11.2166 192.487 11.2166C194.142 11.2166 195.771 11.6254 197.23 12.4069C198.599 13.2043 199.714 14.3747 200.445 15.782C201.263 17.3922 201.666 19.1815 201.617 20.9873C201.663 22.781 201.26 24.5577 200.445 26.1559C199.711 27.5648 198.592 28.7354 197.218 29.531C195.759 30.3124 194.13 30.7213 192.475 30.7213C190.82 30.7213 189.191 30.3124 187.731 29.531C186.346 28.7415 185.216 27.57 184.476 26.1559C183.668 24.5615 183.27 22.7908 183.316 21.0036ZM188.708 21.0036C188.677 22.0527 188.832 23.0991 189.168 24.0933C189.409 24.8081 189.867 25.4294 190.479 25.8706C191.076 26.2409 191.764 26.4371 192.467 26.4371C193.169 26.4371 193.857 26.2409 194.455 25.8706C195.066 25.4294 195.524 24.8081 195.765 24.0933C196.103 23.0995 196.259 22.0528 196.225 21.0036C196.259 19.9543 196.103 18.9076 195.765 17.9138C195.522 17.1948 195.064 16.5675 194.455 16.1162C193.861 15.7357 193.171 15.5334 192.467 15.5334C191.762 15.5334 191.072 15.7357 190.479 16.1162C189.869 16.5675 189.412 17.1948 189.168 17.9138C188.832 18.908 188.676 19.9544 188.708 21.0036Z" fill="#EDEDED"/>
<path d="M205.093 11.6606H210.278L210.945 15.374V30.2929H205.626V16.0996C205.626 15.6023 205.606 15.158 205.573 14.7667C205.54 14.3753 205.471 13.9229 205.378 13.4011L205.093 11.6606ZM210.412 18.6594V15.317C211.07 14.1182 212 13.0907 213.126 12.3169C214.174 11.6068 215.41 11.229 216.675 11.2326V16.4909C215.493 16.4618 214.314 16.6172 213.179 16.9515C212.15 17.3245 211.208 17.9059 210.412 18.6594Z" fill="#EDEDED"/>
<path d="M8.76042 24.8138H3.52673C2.4074 24.8138 1.5 25.7226 1.5 26.8437V32.0857C1.5 33.2068 2.4074 34.1157 3.52673 34.1157H8.76042C9.87976 34.1157 10.7872 33.2068 10.7872 32.0857V26.8437C10.7872 25.7226 9.87976 24.8138 8.76042 24.8138Z" fill="#EDEDED"/>
<path d="M20.0214 13.3197H14.7877C13.6684 13.3197 12.761 14.2285 12.761 15.3497V20.5916C12.761 21.7128 13.6684 22.6216 14.7877 22.6216H20.0214C21.1407 22.6216 22.0481 21.7128 22.0481 20.5916V15.3497C22.0481 14.2285 21.1407 13.3197 20.0214 13.3197Z" fill="#EDEDED"/>
<path d="M31.4736 1.82446H26.2399C25.1205 1.82446 24.2131 2.7333 24.2131 3.85441V9.09641C24.2131 10.2175 25.1205 11.1264 26.2399 11.1264H31.4736C32.5929 11.1264 33.5003 10.2175 33.5003 9.09641V3.85441C33.5003 2.7333 32.5929 1.82446 31.4736 1.82446Z" fill="#EDEDED"/>
<path d="M20.0214 24.8138H14.7877C13.6684 24.8138 12.761 25.7226 12.761 26.8437V32.0857C12.761 33.2068 13.6684 34.1157 14.7877 34.1157H20.0214C21.1407 34.1157 22.0481 33.2068 22.0481 32.0857V26.8437C22.0481 25.7226 21.1407 24.8138 20.0214 24.8138Z" stroke="#EDEDED" stroke-width="0.830793" stroke-miterlimit="10"/>
<path d="M31.4736 13.3197H26.2399C25.1205 13.3197 24.2131 14.2285 24.2131 15.3497V20.5916C24.2131 21.7128 25.1205 22.6216 26.2399 22.6216H31.4736C32.5929 22.6216 33.5003 21.7128 33.5003 20.5916V15.3497C33.5003 14.2285 32.5929 13.3197 31.4736 13.3197Z" stroke="#EDEDED" stroke-width="0.830793" stroke-miterlimit="10"/>
<path d="M8.76042 13.3197H3.52673C2.4074 13.3197 1.5 14.2285 1.5 15.3497V20.5916C1.5 21.7128 2.4074 22.6216 3.52673 22.6216H8.76042C9.87976 22.6216 10.7872 21.7128 10.7872 20.5916V15.3497C10.7872 14.2285 9.87976 13.3197 8.76042 13.3197Z" stroke="#EDEDED" stroke-width="0.830793" stroke-miterlimit="10"/>
<path d="M20.0214 1.82446H14.7877C13.6684 1.82446 12.761 2.7333 12.761 3.85441V9.09641C12.761 10.2175 13.6684 11.1264 14.7877 11.1264H20.0214C21.1407 11.1264 22.0481 10.2175 22.0481 9.09641V3.85441C22.0481 2.7333 21.1407 1.82446 20.0214 1.82446Z" stroke="#EDEDED" stroke-width="0.830793" stroke-miterlimit="10"/>
</svg>
