<svg width="160" height="40" viewBox="0 0 160 40" fill="none" xmlns="http://www.w3.org/2000/svg">
<g clip-path="url(#clip0_140_2)">
<path d="M44.478 24.9836L45.5712 23.6249C46.7406 24.7412 48.2956 25.3508 49.9038 25.3233C50.4261 25.3386 50.9465 25.2517 51.4362 25.0674C51.8005 24.9302 52.1211 24.6953 52.3636 24.3881C52.5629 24.1287 52.673 23.8106 52.6772 23.4822C52.68 23.1349 52.581 22.7945 52.3927 22.504C52.1314 22.1438 51.7909 21.85 51.3981 21.6457C50.7598 21.2988 50.0898 21.0152 49.3975 20.7987C48.487 20.5005 47.6124 20.1002 46.7899 19.6053C46.2392 19.2895 45.7767 18.8376 45.4458 18.2918C45.1866 17.8133 45.0546 17.2749 45.0627 16.7293C45.0578 16.0619 45.2591 15.4096 45.6384 14.8633C46.0538 14.2818 46.6131 13.821 47.2604 13.5272C48.0064 13.1798 48.8205 13.0079 49.6417 13.0245C50.45 13.0314 51.2505 13.1848 52.0052 13.4774C52.7889 13.767 53.5155 14.1948 54.1513 14.741L53.0782 16.1609C52.6063 15.6945 52.0535 15.3199 51.4473 15.0558C50.8321 14.7907 50.1694 14.6565 49.5006 14.6618C48.6284 14.6618 47.9743 14.849 47.5381 15.2234C47.3383 15.3783 47.1755 15.577 47.0623 15.8044C46.949 16.0318 46.888 16.2822 46.884 16.5368C46.887 16.8338 46.9792 17.1228 47.1484 17.3657C47.3953 17.6877 47.7128 17.9473 48.0758 18.1243C48.6762 18.4342 49.303 18.6889 49.9487 18.8852C50.9161 19.1697 51.8402 19.5872 52.6952 20.1262C53.2874 20.4936 53.7886 20.9933 54.1603 21.5868C54.4539 22.0846 54.6087 22.6536 54.6083 23.2331C54.614 23.9137 54.4173 24.5804 54.0438 25.1467C53.6326 25.7552 53.0605 26.2347 52.3927 26.5303C51.5592 26.8945 50.6569 27.0691 49.7493 27.0421C49.0863 27.041 48.4264 26.9512 47.7868 26.7749C47.1456 26.6052 46.5261 26.3605 45.9409 26.0457C45.4063 25.7629 44.9139 25.4053 44.478 24.9836Z" fill="#EDEDED"/>
<path d="M56.7568 21.7657C56.7243 20.7695 56.9247 19.7795 57.3415 18.8761C57.6919 18.1363 58.2477 17.5155 58.941 17.0894C59.6511 16.6884 60.4508 16.4778 61.2641 16.4778C62.0775 16.4778 62.8773 16.6884 63.5873 17.0894C64.2788 17.5164 64.8329 18.1371 65.1823 18.8761C65.5979 19.7799 65.7982 20.7696 65.767 21.7657C65.7971 22.7618 65.5969 23.7512 65.1823 24.6553C64.8341 25.3967 64.2769 26.0176 63.5805 26.4398C62.8687 26.835 62.0696 27.0422 61.2574 27.0422C60.4452 27.0422 59.6462 26.835 58.9343 26.4398C58.2412 26.0164 57.6871 25.3957 57.3415 24.6553C56.9259 23.7515 56.7257 22.7618 56.7568 21.7657ZM58.5916 21.7657C58.5722 22.448 58.6801 23.128 58.9097 23.7698C59.0876 24.2669 59.4072 24.6996 59.8282 25.0131C60.2567 25.2897 60.7546 25.4367 61.263 25.4367C61.7715 25.4367 62.2694 25.2897 62.6979 25.0131C63.1176 24.6987 63.4363 24.2663 63.6142 23.7698C63.8453 23.1282 63.9547 22.4483 63.9367 21.7657C63.9545 21.0839 63.845 20.4048 63.6142 19.7638C63.4346 19.2652 63.1164 18.8296 62.6979 18.5093C62.2715 18.227 61.7728 18.0766 61.263 18.0766C60.7533 18.0766 60.2546 18.227 59.8282 18.5093C59.4084 18.8288 59.0893 19.2646 58.9097 19.7638C58.6803 20.4051 58.5725 21.0842 58.5916 21.7657Z" fill="#EDEDED"/>
<path d="M68.5088 22.9114V16.6748H70.301V22.6736C70.301 23.5961 70.4996 24.2671 70.8969 24.6868C71.0935 24.8957 71.3318 25.0601 71.596 25.169C71.8601 25.2779 72.1441 25.3289 72.4292 25.3186C72.9588 25.3164 73.478 25.1701 73.9324 24.8952C74.4453 24.5855 74.9066 24.1957 75.2989 23.7402V25.1601C74.8844 25.7023 74.3749 26.1628 73.7958 26.5188C73.2525 26.8489 72.6331 27.0291 71.9994 27.0414C71.3657 27.0537 70.7399 26.8977 70.1845 26.5891C69.6465 26.2681 69.2176 25.7895 68.9546 25.2167C68.6325 24.4932 68.48 23.7043 68.5088 22.9114ZM75.42 26.8382L75.01 24.8634V16.6748H76.8022V24.4287C76.8022 24.7049 76.8022 24.9586 76.8314 25.1873C76.8605 25.416 76.887 25.6787 76.9387 25.9663L77.0956 26.8359L75.42 26.8382Z" fill="#EDEDED"/>
<path d="M78.8472 25.3776L80.7226 23.1674C80.9527 23.4915 81.2527 23.758 81.6006 23.9464C81.9716 24.1515 82.3877 24.2568 82.8105 24.2522C83.1209 24.2696 83.4314 24.2178 83.7198 24.1004C84.0083 23.983 84.2675 23.8028 84.4795 23.5728C84.8758 23.1199 85.0751 22.4677 85.0751 21.6003V13.2215H88.1984V22.0034C88.2275 22.9714 87.9798 23.9275 87.4855 24.7571C87.0226 25.5037 86.3587 26.102 85.5727 26.4827C84.7415 26.8844 83.8299 27.0874 82.909 27.076C82.1307 27.088 81.3589 26.9337 80.6439 26.6231C79.9734 26.3249 79.364 25.9025 78.8472 25.3776ZM81.8829 15.597V13.2215H87.1541V15.597H81.8829Z" fill="#EDEDED"/>
<path d="M91.0387 22.9115V16.4778H93.9666V22.4563C93.9666 23.1009 94.1196 23.578 94.4257 23.8875C94.588 24.0429 94.7801 24.1632 94.9899 24.2411C95.2001 24.319 95.4236 24.3528 95.6466 24.3404C96.049 24.3372 96.4458 24.2428 96.8069 24.0641C97.206 23.8684 97.5567 23.5853 97.833 23.2353V25.1896C97.4493 25.7248 96.9726 26.1851 96.4266 26.5483C95.8723 26.9031 95.2271 27.0851 94.5715 27.0715C93.9732 27.0738 93.3847 26.9176 92.8646 26.6185C92.3042 26.2881 91.8473 25.8056 91.5451 25.2258C91.184 24.5105 91.0101 23.7139 91.0387 22.9115ZM97.9117 26.8382L97.5396 24.8635V16.4846H100.467V24.3721C100.467 24.6483 100.467 24.8952 100.497 25.1103C100.526 25.3255 100.553 25.5813 100.605 25.8712L100.761 26.8382H97.9117Z" fill="#EDEDED"/>
<path d="M103.102 16.4783H105.954L106.324 18.4507V26.8296H103.396V18.9443C103.396 18.6681 103.396 18.4212 103.367 18.2038C103.338 17.9864 103.311 17.7351 103.259 17.4452L103.102 16.4783ZM106.033 20.0698V18.1156C106.42 17.5742 106.907 17.113 107.466 16.7568C108.032 16.4044 108.686 16.2229 109.35 16.2337C109.981 16.2331 110.6 16.4052 111.142 16.7318C111.683 17.0584 112.127 17.5272 112.426 18.0883C112.795 18.8027 112.973 19.6019 112.944 20.4073V26.8386H110.016V20.8579C110.03 20.4862 109.953 20.1168 109.792 19.7822C109.656 19.5154 109.442 19.2983 109.178 19.1618C108.898 19.0263 108.592 18.9588 108.282 18.9647C107.851 18.9728 107.428 19.0759 107.041 19.2668C106.654 19.4577 106.313 19.7318 106.042 20.0698H106.033Z" fill="#EDEDED"/>
<path d="M115.558 13.4978C115.556 13.2769 115.597 13.0578 115.679 12.853C115.761 12.6482 115.882 12.4617 116.035 12.3044C116.357 11.9808 116.792 11.7991 117.245 11.7991C117.699 11.7991 118.134 11.9808 118.455 12.3044C118.607 12.4624 118.727 12.6491 118.807 12.8539C118.887 13.0587 118.926 13.2776 118.923 13.4978C118.926 13.7186 118.885 13.9377 118.804 14.1425C118.722 14.3473 118.601 14.5338 118.448 14.6913C118.127 15.0112 117.693 15.1904 117.242 15.1904C116.791 15.1904 116.357 15.0112 116.035 14.6913C115.882 14.5339 115.761 14.3474 115.679 14.1426C115.597 13.9379 115.557 13.7187 115.558 13.4978ZM115.782 26.8384V16.478H118.713V26.8384H115.782Z" fill="#EDEDED"/>
<path d="M120.908 21.6687C120.88 20.6624 121.101 19.6651 121.553 18.7678C121.96 17.9821 122.582 17.3313 123.345 16.8927C124.148 16.4586 125.045 16.2314 125.956 16.2314C126.867 16.2314 127.764 16.4586 128.567 16.8927C129.32 17.3357 129.934 17.9859 130.336 18.7678C130.787 19.6623 131.009 20.6564 130.982 21.6596C131.007 22.6561 130.785 23.6432 130.336 24.5311C129.932 25.3138 129.316 25.9641 128.56 26.4061C127.757 26.8402 126.86 27.0674 125.949 27.0674C125.038 27.0674 124.142 26.8402 123.338 26.4061C122.576 25.9675 121.954 25.3167 121.546 24.5311C121.101 23.6453 120.882 22.6616 120.908 21.6687ZM123.876 21.6687C123.859 22.2515 123.944 22.8328 124.129 23.3852C124.262 23.7823 124.514 24.1274 124.851 24.3726C125.179 24.5783 125.558 24.6873 125.945 24.6873C126.331 24.6873 126.71 24.5783 127.039 24.3726C127.376 24.1274 127.628 23.7823 127.76 23.3852C127.946 22.8331 128.032 22.2516 128.014 21.6687C128.032 21.0857 127.946 20.5042 127.76 19.9521C127.627 19.5527 127.374 19.2042 127.039 18.9534C126.712 18.7421 126.332 18.6297 125.945 18.6297C125.557 18.6297 125.177 18.7421 124.851 18.9534C124.515 19.2042 124.263 19.5527 124.129 19.9521C123.944 20.5044 123.858 21.0858 123.876 21.6687Z" fill="#EDEDED"/>
<path d="M132.895 16.4781H135.749L136.116 18.5411V26.8294H133.188V18.9442C133.188 18.668 133.177 18.4211 133.159 18.2037C133.141 17.9863 133.103 17.735 133.052 17.4451L132.895 16.4781ZM135.823 20.3663V18.5095C136.185 17.8435 136.697 17.2726 137.317 16.8427C137.894 16.4482 138.574 16.2383 139.27 16.2403V19.1616C138.62 19.1455 137.971 19.2318 137.346 19.4175C136.78 19.6247 136.261 19.9477 135.823 20.3663Z" fill="#EDEDED"/>
<path d="M21.9413 24.2854H24.8222C25.1572 24.2854 25.4379 24.5614 25.4379 24.9132V27.8254C25.4379 28.1772 25.1572 28.4532 24.8222 28.4532H21.9413C21.6064 28.4532 21.3257 28.1772 21.3257 27.8254V24.9132C21.3257 24.5614 21.6064 24.2854 21.9413 24.2854Z" fill="#005DC8" stroke="#005DC8"/>
<path d="M28.14 17.8998H31.021C31.3559 17.8998 31.6366 18.1758 31.6366 18.5276V21.4398C31.6366 21.7916 31.3559 22.0676 31.021 22.0676H28.14C27.8051 22.0676 27.5244 21.7916 27.5244 21.4398V18.5276C27.5244 18.1758 27.8051 17.8998 28.14 17.8998Z" fill="#005DC8" stroke="#005DC8"/>
<path d="M34.4438 11.5136H37.3247C37.6596 11.5136 37.9403 11.7895 37.9403 12.1413V15.0536C37.9403 15.4054 37.6596 15.6813 37.3247 15.6813H34.4438C34.1088 15.6813 33.8281 15.4053 33.8281 15.0536V12.1413C33.8281 11.7895 34.1088 11.5136 34.4438 11.5136Z" fill="#005DC8" stroke="#005DC8"/>
<path d="M31.021 23.7854H28.14C27.5239 23.7854 27.0244 24.2903 27.0244 24.9132V27.8254C27.0244 28.4482 27.5239 28.9532 28.14 28.9532H31.021C31.6371 28.9532 32.1366 28.4482 32.1366 27.8254V24.9132C32.1366 24.2903 31.6371 23.7854 31.021 23.7854Z" stroke="#005DC8" stroke-width="0.830793" stroke-miterlimit="10"/>
<path d="M37.3247 17.3998H34.4438C33.8276 17.3998 33.3281 17.9047 33.3281 18.5276V21.4398C33.3281 22.0627 33.8276 22.5676 34.4438 22.5676H37.3247C37.9409 22.5676 38.4403 22.0627 38.4403 21.4398V18.5276C38.4403 17.9047 37.9409 17.3998 37.3247 17.3998Z" stroke="#005DC8" stroke-width="0.830793" stroke-miterlimit="10"/>
<path d="M24.8222 17.3998H21.9413C21.3252 17.3998 20.8257 17.9047 20.8257 18.5276V21.4398C20.8257 22.0627 21.3252 22.5676 21.9413 22.5676H24.8222C25.4384 22.5676 25.9379 22.0627 25.9379 21.4398V18.5276C25.9379 17.9047 25.4384 17.3998 24.8222 17.3998Z" stroke="#005DC8" stroke-width="0.830793" stroke-miterlimit="10"/>
<path d="M31.021 11.0136H28.14C27.5239 11.0136 27.0244 11.5185 27.0244 12.1413V15.0536C27.0244 15.6764 27.5239 16.1813 28.14 16.1813H31.021C31.6371 16.1813 32.1366 15.6764 32.1366 15.0536V12.1413C32.1366 11.5185 31.6371 11.0136 31.021 11.0136Z" stroke="#005DC8" stroke-width="0.830793" stroke-miterlimit="10"/>
</g>
<defs>
<clipPath id="clip0_140_2">
<rect width="120" height="20" fill="white" transform="translate(20 10)"/>
</clipPath>
</defs>
</svg>
