<svg width="161" height="40" viewBox="0 0 161 40" fill="none" xmlns="http://www.w3.org/2000/svg">
<g clip-path="url(#clip0_140_270)">
<path d="M45.478 24.9836L46.5712 23.6249C47.7406 24.7412 49.2956 25.3508 50.9038 25.3233C51.4261 25.3386 51.9465 25.2517 52.4362 25.0674C52.8005 24.9302 53.1211 24.6953 53.3636 24.3881C53.5629 24.1287 53.673 23.8106 53.6772 23.4822C53.68 23.1349 53.581 22.7945 53.3927 22.504C53.1314 22.1438 52.7909 21.85 52.3981 21.6457C51.7598 21.2988 51.0898 21.0152 50.3975 20.7987C49.487 20.5005 48.6124 20.1002 47.7899 19.6053C47.2392 19.2895 46.7767 18.8376 46.4458 18.2918C46.1866 17.8133 46.0546 17.2749 46.0627 16.7293C46.0578 16.0619 46.2591 15.4096 46.6384 14.8633C47.0538 14.2818 47.6131 13.821 48.2604 13.5272C49.0064 13.1798 49.8205 13.0079 50.6417 13.0245C51.45 13.0314 52.2505 13.1848 53.0052 13.4774C53.7889 13.767 54.5155 14.1948 55.1513 14.741L54.0782 16.1609C53.6063 15.6945 53.0535 15.3199 52.4473 15.0558C51.8321 14.7907 51.1694 14.6565 50.5006 14.6618C49.6284 14.6618 48.9743 14.849 48.5381 15.2234C48.3383 15.3783 48.1755 15.577 48.0623 15.8044C47.949 16.0318 47.888 16.2822 47.884 16.5368C47.887 16.8338 47.9792 17.1228 48.1484 17.3657C48.3953 17.6877 48.7128 17.9473 49.0758 18.1243C49.6762 18.4342 50.303 18.6889 50.9487 18.8852C51.9161 19.1697 52.8402 19.5872 53.6952 20.1262C54.2874 20.4936 54.7886 20.9933 55.1603 21.5868C55.4539 22.0846 55.6087 22.6536 55.6083 23.2331C55.614 23.9137 55.4173 24.5804 55.0438 25.1467C54.6326 25.7552 54.0605 26.2347 53.3927 26.5303C52.5592 26.8945 51.6569 27.0691 50.7493 27.0421C50.0863 27.041 49.4264 26.9512 48.7868 26.7749C48.1456 26.6052 47.5261 26.3605 46.9409 26.0457C46.4063 25.7629 45.9139 25.4053 45.478 24.9836Z" fill="#111111"/>
<path d="M57.7568 21.7657C57.7243 20.7695 57.9247 19.7795 58.3415 18.8761C58.6919 18.1363 59.2477 17.5155 59.941 17.0894C60.6511 16.6884 61.4508 16.4778 62.2641 16.4778C63.0775 16.4778 63.8773 16.6884 64.5873 17.0894C65.2788 17.5164 65.8329 18.1371 66.1823 18.8761C66.5979 19.7799 66.7982 20.7696 66.767 21.7657C66.7971 22.7618 66.5969 23.7512 66.1823 24.6553C65.8341 25.3967 65.2769 26.0176 64.5805 26.4398C63.8687 26.835 63.0696 27.0422 62.2574 27.0422C61.4452 27.0422 60.6462 26.835 59.9343 26.4398C59.2412 26.0164 58.6871 25.3957 58.3415 24.6553C57.9259 23.7515 57.7257 22.7618 57.7568 21.7657ZM59.5916 21.7657C59.5722 22.448 59.6801 23.128 59.9097 23.7698C60.0876 24.2669 60.4072 24.6996 60.8282 25.0131C61.2567 25.2897 61.7546 25.4367 62.263 25.4367C62.7715 25.4367 63.2694 25.2897 63.6979 25.0131C64.1176 24.6987 64.4363 24.2663 64.6142 23.7698C64.8453 23.1282 64.9547 22.4483 64.9367 21.7657C64.9545 21.0839 64.845 20.4048 64.6142 19.7638C64.4346 19.2652 64.1164 18.8296 63.6979 18.5093C63.2715 18.227 62.7728 18.0766 62.263 18.0766C61.7533 18.0766 61.2546 18.227 60.8282 18.5093C60.4084 18.8288 60.0893 19.2646 59.9097 19.7638C59.6803 20.4051 59.5725 21.0842 59.5916 21.7657Z" fill="#111111"/>
<path d="M69.5088 22.9114V16.6748H71.301V22.6736C71.301 23.5961 71.4996 24.2671 71.8969 24.6868C72.0935 24.8957 72.3318 25.0601 72.596 25.169C72.8601 25.2779 73.1441 25.3289 73.4292 25.3186C73.9588 25.3164 74.478 25.1701 74.9324 24.8952C75.4453 24.5855 75.9066 24.1957 76.2989 23.7402V25.1601C75.8844 25.7023 75.3749 26.1628 74.7958 26.5188C74.2525 26.8489 73.6331 27.0291 72.9994 27.0414C72.3657 27.0537 71.7399 26.8977 71.1845 26.5891C70.6465 26.2681 70.2176 25.7895 69.9546 25.2167C69.6325 24.4932 69.48 23.7043 69.5088 22.9114ZM76.42 26.8382L76.01 24.8634V16.6748H77.8022V24.4287C77.8022 24.7049 77.8022 24.9586 77.8314 25.1873C77.8605 25.416 77.887 25.6787 77.9387 25.9663L78.0956 26.8359L76.42 26.8382Z" fill="#111111"/>
<path d="M79.8472 25.3776L81.7226 23.1674C81.9527 23.4915 82.2527 23.758 82.6006 23.9464C82.9716 24.1515 83.3877 24.2568 83.8105 24.2522C84.1209 24.2696 84.4314 24.2178 84.7198 24.1004C85.0083 23.983 85.2675 23.8028 85.4795 23.5728C85.8758 23.1199 86.0751 22.4677 86.0751 21.6003V13.2215H89.1984V22.0034C89.2275 22.9714 88.9798 23.9275 88.4855 24.7571C88.0226 25.5037 87.3587 26.102 86.5727 26.4827C85.7415 26.8844 84.8299 27.0874 83.909 27.076C83.1307 27.088 82.3589 26.9337 81.6439 26.6231C80.9734 26.3249 80.364 25.9025 79.8472 25.3776ZM82.8829 15.597V13.2215H88.1541V15.597H82.8829Z" fill="#111111"/>
<path d="M92.0387 22.9115V16.4778H94.9666V22.4563C94.9666 23.1009 95.1196 23.578 95.4257 23.8875C95.588 24.0429 95.7801 24.1632 95.9899 24.2411C96.2001 24.319 96.4236 24.3528 96.6466 24.3404C97.049 24.3372 97.4458 24.2428 97.8069 24.0641C98.206 23.8684 98.5567 23.5853 98.833 23.2353V25.1896C98.4493 25.7248 97.9726 26.1851 97.4266 26.5483C96.8723 26.9031 96.2271 27.0851 95.5715 27.0715C94.9732 27.0738 94.3847 26.9176 93.8646 26.6185C93.3042 26.2881 92.8473 25.8056 92.5451 25.2258C92.184 24.5105 92.0101 23.7139 92.0387 22.9115ZM98.9117 26.8382L98.5396 24.8635V16.4846H101.467V24.3721C101.467 24.6483 101.467 24.8952 101.497 25.1103C101.526 25.3255 101.553 25.5813 101.605 25.8712L101.761 26.8382H98.9117Z" fill="#111111"/>
<path d="M104.102 16.4783H106.954L107.324 18.4507V26.8296H104.396V18.9443C104.396 18.6681 104.396 18.4212 104.367 18.2038C104.338 17.9864 104.311 17.7351 104.259 17.4452L104.102 16.4783ZM107.033 20.0698V18.1156C107.42 17.5742 107.907 17.113 108.466 16.7568C109.032 16.4044 109.686 16.2229 110.35 16.2337C110.981 16.2331 111.6 16.4052 112.142 16.7318C112.683 17.0584 113.127 17.5272 113.426 18.0883C113.795 18.8027 113.973 19.6019 113.944 20.4073V26.8386H111.016V20.8579C111.03 20.4862 110.953 20.1168 110.792 19.7822C110.656 19.5154 110.442 19.2983 110.178 19.1618C109.898 19.0263 109.592 18.9588 109.282 18.9647C108.851 18.9728 108.428 19.0759 108.041 19.2668C107.654 19.4577 107.313 19.7318 107.042 20.0698H107.033Z" fill="#111111"/>
<path d="M116.558 13.4978C116.556 13.2769 116.597 13.0578 116.679 12.853C116.761 12.6482 116.882 12.4617 117.035 12.3044C117.357 11.9808 117.792 11.7991 118.245 11.7991C118.699 11.7991 119.134 11.9808 119.455 12.3044C119.607 12.4624 119.727 12.6491 119.807 12.8539C119.887 13.0587 119.926 13.2776 119.923 13.4978C119.926 13.7186 119.885 13.9377 119.804 14.1425C119.722 14.3473 119.601 14.5338 119.448 14.6913C119.127 15.0112 118.693 15.1904 118.242 15.1904C117.791 15.1904 117.357 15.0112 117.035 14.6913C116.882 14.5339 116.761 14.3474 116.679 14.1426C116.597 13.9379 116.557 13.7187 116.558 13.4978ZM116.782 26.8384V16.478H119.713V26.8384H116.782Z" fill="#111111"/>
<path d="M121.908 21.6687C121.88 20.6624 122.101 19.6651 122.553 18.7678C122.96 17.9821 123.582 17.3313 124.345 16.8927C125.148 16.4586 126.045 16.2314 126.956 16.2314C127.867 16.2314 128.764 16.4586 129.567 16.8927C130.32 17.3357 130.934 17.9859 131.336 18.7678C131.787 19.6623 132.009 20.6564 131.982 21.6596C132.007 22.6561 131.785 23.6432 131.336 24.5311C130.932 25.3138 130.316 25.9641 129.56 26.4061C128.757 26.8402 127.86 27.0674 126.949 27.0674C126.038 27.0674 125.142 26.8402 124.338 26.4061C123.576 25.9675 122.954 25.3167 122.546 24.5311C122.101 23.6453 121.882 22.6616 121.908 21.6687ZM124.876 21.6687C124.859 22.2515 124.944 22.8328 125.129 23.3852C125.262 23.7823 125.514 24.1274 125.851 24.3726C126.179 24.5783 126.558 24.6873 126.945 24.6873C127.331 24.6873 127.71 24.5783 128.039 24.3726C128.376 24.1274 128.628 23.7823 128.76 23.3852C128.946 22.8331 129.032 22.2516 129.014 21.6687C129.032 21.0857 128.946 20.5042 128.76 19.9521C128.627 19.5527 128.374 19.2042 128.039 18.9534C127.712 18.7421 127.332 18.6297 126.945 18.6297C126.557 18.6297 126.177 18.7421 125.851 18.9534C125.515 19.2042 125.263 19.5527 125.129 19.9521C124.944 20.5044 124.858 21.0858 124.876 21.6687Z" fill="#111111"/>
<path d="M133.895 16.4781H136.749L137.116 18.5411V26.8294H134.188V18.9442C134.188 18.668 134.177 18.4211 134.159 18.2037C134.141 17.9863 134.103 17.735 134.052 17.4451L133.895 16.4781ZM136.823 20.3663V18.5095C137.185 17.8435 137.697 17.2726 138.317 16.8427C138.894 16.4482 139.574 16.2383 140.27 16.2403V19.1616C139.62 19.1455 138.971 19.2318 138.346 19.4175C137.78 19.6247 137.261 19.9477 136.823 20.3663Z" fill="#111111"/>
<path d="M23.1615 24.6667H26.0425C26.3774 24.6667 26.6581 24.9426 26.6581 25.2944V28.2066C26.6581 28.5584 26.3774 28.8344 26.0425 28.8344H23.1615C22.8266 28.8344 22.5459 28.5584 22.5459 28.2066V25.2944C22.5459 24.9426 22.8266 24.6667 23.1615 24.6667Z" fill="#005DC8" stroke="#005DC8"/>
<path d="M29.14 17.8998H32.021C32.3559 17.8998 32.6366 18.1758 32.6366 18.5276V21.4398C32.6366 21.7916 32.3559 22.0676 32.021 22.0676H29.14C28.8051 22.0676 28.5244 21.7916 28.5244 21.4398V18.5276C28.5244 18.1758 28.8051 17.8998 29.14 17.8998Z" fill="#005DC8" stroke="#005DC8"/>
<path d="M35.4438 11.5136H38.3247C38.6596 11.5136 38.9403 11.7895 38.9403 12.1413V15.0536C38.9403 15.4054 38.6596 15.6813 38.3247 15.6813H35.4438C35.1088 15.6813 34.8281 15.4053 34.8281 15.0536V12.1413C34.8281 11.7895 35.1088 11.5136 35.4438 11.5136Z" fill="#005DC8" stroke="#005DC8"/>
<path d="M32.021 23.7854H29.14C28.5239 23.7854 28.0244 24.2903 28.0244 24.9132V27.8254C28.0244 28.4482 28.5239 28.9532 29.14 28.9532H32.021C32.6371 28.9532 33.1366 28.4482 33.1366 27.8254V24.9132C33.1366 24.2903 32.6371 23.7854 32.021 23.7854Z" stroke="#005DC8" stroke-width="0.830793" stroke-miterlimit="10"/>
<path d="M38.3247 17.3998H35.4438C34.8276 17.3998 34.3281 17.9047 34.3281 18.5276V21.4398C34.3281 22.0627 34.8276 22.5676 35.4438 22.5676H38.3247C38.9409 22.5676 39.4403 22.0627 39.4403 21.4398V18.5276C39.4403 17.9047 38.9409 17.3998 38.3247 17.3998Z" stroke="#005DC8" stroke-width="0.830793" stroke-miterlimit="10"/>
<path d="M25.8222 17.3998H22.9413C22.3252 17.3998 21.8257 17.9047 21.8257 18.5276V21.4398C21.8257 22.0627 22.3252 22.5676 22.9413 22.5676H25.8222C26.4384 22.5676 26.9379 22.0627 26.9379 21.4398V18.5276C26.9379 17.9047 26.4384 17.3998 25.8222 17.3998Z" stroke="#005DC8" stroke-width="0.830793" stroke-miterlimit="10"/>
<path d="M32.021 11.0136H29.14C28.5239 11.0136 28.0244 11.5185 28.0244 12.1413V15.0536C28.0244 15.6764 28.5239 16.1813 29.14 16.1813H32.021C32.6371 16.1813 33.1366 15.6764 33.1366 15.0536V12.1413C33.1366 11.5185 32.6371 11.0136 32.021 11.0136Z" stroke="#005DC8" stroke-width="0.830793" stroke-miterlimit="10"/>
</g>
<defs>
<clipPath id="clip0_140_270">
<rect width="120" height="20" fill="white" transform="translate(21 10)"/>
</clipPath>
</defs>
</svg>
