<svg width="161" height="40" viewBox="0 0 161 40" fill="none" xmlns="http://www.w3.org/2000/svg">
<g clip-path="url(#clip0_140_332)">
<path d="M62.6536 23.3294C63.2208 23.3294 63.6717 23.2367 64.0042 23.0531C64.3367 22.8696 64.5012 22.5859 64.5012 22.2057C64.5012 21.8961 64.3958 21.6495 64.1815 21.4658C63.9691 21.2805 63.5959 21.0634 63.0619 20.8131C62.7774 20.6833 62.5132 20.5461 62.2711 20.4033C62.0272 20.2605 61.8167 20.0936 61.6393 19.9045C61.4619 19.7135 61.3196 19.4909 61.2124 19.2351C61.1053 18.9792 61.0517 18.6732 61.0517 18.3153C61.0517 17.3882 61.3898 16.6502 62.0661 16.1031C62.7423 15.5561 63.7197 15.2817 65.0001 15.2817C65.5932 15.2817 66.1234 15.3447 66.5909 15.4689C67.0583 15.5951 67.4112 15.7229 67.6495 15.8528L66.8846 17.5309C66.6832 17.4123 66.3932 17.2954 66.0126 17.1823C65.6338 17.0692 65.2366 17.0136 64.8227 17.0136C64.6195 17.0136 64.4218 17.0303 64.226 17.0674C64.0301 17.1026 63.8564 17.1619 63.7012 17.2454C63.5479 17.3288 63.4204 17.4438 63.3187 17.5922C63.219 17.7424 63.169 17.9222 63.169 18.1373C63.169 18.4099 63.2781 18.6342 63.498 18.8068C63.7159 18.9792 64.0337 19.1609 64.4476 19.35C64.8393 19.5281 65.1719 19.7023 65.4435 19.8675C65.7169 20.0343 65.9423 20.2216 66.1197 20.4293C66.2971 20.6388 66.4283 20.8705 66.5114 21.1265C66.5946 21.3824 66.6352 21.6883 66.6352 22.0444C66.6352 22.4857 66.5465 22.8919 66.3691 23.2664C66.19 23.6428 65.9331 23.9636 65.5949 24.2307C65.2569 24.4977 64.8393 24.709 64.3423 24.8648C63.8435 25.0187 63.2744 25.0966 62.6351 25.0966C62.1972 25.0966 61.8018 25.0669 61.4526 25.0076C61.1034 24.9483 60.7986 24.8796 60.5363 24.8018C60.2757 24.7239 60.0577 24.6442 59.8785 24.5607C59.7011 24.4773 59.5644 24.4068 59.4702 24.3475L60.2351 22.6526C60.3182 22.6989 60.4402 22.762 60.599 22.8399C60.7598 22.9159 60.9427 22.99 61.1496 23.0625C61.3584 23.1329 61.5894 23.196 61.8444 23.2497C62.0993 23.3035 62.369 23.3294 62.6536 23.3294ZM70.312 23.17C70.432 23.1922 70.5558 23.2071 70.687 23.2145C70.8163 23.22 70.9475 23.2218 71.0769 23.2218C71.6459 23.2218 72.1596 23.1124 72.6159 22.8919C73.0723 22.673 73.4621 22.3744 73.7836 21.9999C74.1033 21.6253 74.349 21.1858 74.5208 20.6797C74.6926 20.1734 74.7776 19.6356 74.7776 19.0645C74.7776 18.803 74.7481 18.5564 74.6889 18.3246C74.6298 18.0928 74.5318 17.887 74.397 17.7089C74.2603 17.5309 74.0755 17.3882 73.8445 17.2806C73.6137 17.173 73.3199 17.1193 72.9651 17.1193C72.7286 17.1193 72.5033 17.1341 72.2889 17.1638C72.0764 17.1953 71.8861 17.2324 71.7198 17.2806L70.312 23.17ZM76.9301 18.8679C76.9301 19.7135 76.7971 20.5071 76.5292 21.2508C76.2631 21.9943 75.8714 22.6452 75.3559 23.2051C74.8404 23.7634 74.2123 24.2065 73.4713 24.5348C72.7305 24.8611 71.8806 25.0243 70.9199 25.0243C70.7536 25.0243 70.5854 25.0168 70.4136 24.9983C70.2418 24.9798 70.0736 24.9594 69.9074 24.9353L69.1221 28.147H66.9733L69.9074 15.888C70.3932 15.71 70.9345 15.5672 71.5332 15.4596C72.1318 15.3539 72.7341 15.3002 73.3383 15.3002C73.9554 15.3002 74.4912 15.3929 74.9476 15.5765C75.404 15.76 75.7772 16.0141 76.0672 16.3349C76.3573 16.6557 76.5735 17.034 76.7158 17.4679C76.858 17.9018 76.9301 18.3691 76.9301 18.8679ZM81.3384 25.0243C80.7824 25.0132 80.3113 24.9408 79.9251 24.811C79.5407 24.6794 79.2321 24.5014 79.0013 24.2752C78.7703 24.0489 78.604 23.7819 78.5024 23.4722C78.4027 23.1625 78.3528 22.825 78.3528 22.456C78.3528 22.0741 78.3971 21.6735 78.4857 21.2508C78.5744 20.8279 78.6723 20.4088 78.7795 19.9935L80.8415 11.3561L83.0808 11C82.7112 12.5576 82.3399 14.1079 81.9704 15.6469C81.599 17.1879 81.2258 18.7381 80.8433 20.2958C80.7879 20.5461 80.7251 20.7927 80.6567 21.0375C80.5883 21.2805 80.557 21.5215 80.557 21.7588C80.557 21.9609 80.5588 22.1482 80.5663 22.3207C80.5717 22.495 80.6198 22.6433 80.7084 22.7676C80.7971 22.8919 80.9302 22.9976 81.1076 23.0791C81.2849 23.1625 81.5177 23.2163 81.8004 23.2404L81.3384 25.0243ZM85.2148 24.8463H83.0642L85.3035 15.5134H87.456L85.2148 24.8463ZM86.8148 14.1041C86.4952 14.1041 86.2162 14.0096 85.9797 13.8186C85.7432 13.6294 85.6231 13.3439 85.6231 12.9619C85.6231 12.5224 85.7746 12.159 86.0776 11.8734C86.3788 11.5878 86.7261 11.445 87.1178 11.445C87.4375 11.445 87.7183 11.5434 87.9621 11.7399C88.2042 11.9364 88.3261 12.2257 88.3261 12.6058C88.3261 13.0453 88.1728 13.405 87.8642 13.6851C87.5557 13.9651 87.2065 14.1041 86.8148 14.1041ZM90.4768 13.0509L92.7179 12.6949L92.0399 15.5134H95.0829L94.6561 17.2992H91.6093L90.7207 20.9929C90.6634 21.2544 90.6227 21.4713 90.5987 21.6439C90.5784 21.8163 90.5673 21.9739 90.5673 22.1167C90.5673 22.2595 90.5821 22.3986 90.6116 22.5358C90.6412 22.673 90.7003 22.7916 90.7891 22.8919C90.8777 22.9938 91.0089 23.0772 91.1807 23.1421C91.3526 23.2071 91.5854 23.2404 91.8829 23.2404C92.2025 23.2404 92.511 23.1996 92.8066 23.1162C93.1022 23.0328 93.3645 22.9437 93.5881 22.8474L93.7489 24.5793C93.4773 24.6979 93.1318 24.811 92.7179 24.9187C92.3022 25.0243 91.8162 25.078 91.2602 25.078C90.2403 25.078 89.5123 24.8556 89.0726 24.4086C88.6347 23.9636 88.4148 23.3536 88.4148 22.5803C88.4148 22.2947 88.4351 21.9999 88.4776 21.6976C88.5183 21.3935 88.5811 21.069 88.6643 20.7241L90.4768 13.0509ZM102.416 18.9403C102.191 19.4521 101.936 19.9787 101.651 20.5201C101.37 21.0598 101.075 21.5901 100.766 22.1074C100.458 22.6248 100.149 23.118 99.8423 23.589C99.5337 24.0582 99.2492 24.4773 98.9905 24.8463H97.2187C97.1097 24.2993 97.0026 23.6744 96.9028 22.9734C96.7974 22.2706 96.7032 21.5215 96.6201 20.7241C96.5351 19.9268 96.4574 19.0886 96.3928 18.2078C96.3263 17.3288 96.2801 16.4294 96.2561 15.5134H98.3901C98.3901 16.0141 98.3956 16.5518 98.4067 17.1286C98.4196 17.7053 98.44 18.2949 98.4732 18.8957C98.5028 19.4965 98.538 20.088 98.5822 20.6703C98.6228 21.2544 98.6801 21.8015 98.7541 22.3132C99.0866 21.8015 99.4155 21.2563 99.7407 20.6797C100.07 20.1029 100.38 19.5206 100.677 18.931C100.973 18.3431 101.248 17.7571 101.503 17.173C101.758 16.5908 101.98 16.0382 102.17 15.5134H104.023C104.023 16.0011 104.029 16.5185 104.04 17.0674C104.053 17.6144 104.07 18.1781 104.099 18.7622C104.129 19.3445 104.164 19.936 104.206 20.5368C104.247 21.1376 104.301 21.7291 104.373 22.3132C104.681 21.8608 104.997 21.3435 105.317 20.7593C105.638 20.1771 105.945 19.5799 106.244 18.9662C106.542 18.3543 106.812 17.7479 107.054 17.1471C107.299 16.5463 107.499 16.0011 107.652 15.5134H109.893C109.644 16.2274 109.339 16.9858 108.973 17.7887C108.613 18.5916 108.203 19.4038 107.75 20.2253C107.299 21.0449 106.813 21.8515 106.296 22.6433C105.777 23.4333 105.241 24.1676 104.681 24.8463H102.917C102.787 23.8468 102.675 22.8622 102.586 21.8942C102.497 20.9244 102.44 19.9397 102.416 18.9403ZM117.573 21.2247C117.538 21.3546 117.502 21.5697 117.467 21.8664C117.432 22.1649 117.413 22.4431 117.413 22.7045C117.413 23.0494 117.443 23.3869 117.502 23.7132C117.561 24.0396 117.657 24.3697 117.786 24.7035L115.866 24.9891C115.725 24.7035 115.612 24.4012 115.529 24.0786C115.233 24.3419 114.867 24.5755 114.435 24.7833C114.002 24.9927 113.514 25.0966 112.967 25.0966C112.412 25.0966 111.935 25.0038 111.538 24.8203C111.141 24.6348 110.817 24.379 110.567 24.0526C110.32 23.7262 110.135 23.3424 110.017 22.9011C109.899 22.4616 109.839 21.985 109.839 21.4733C109.839 20.6055 109.993 19.7969 110.302 19.0478C110.61 18.2987 111.039 17.6496 111.591 17.1026C112.142 16.5556 112.796 16.1235 113.555 15.8082C114.315 15.493 115.144 15.3354 116.044 15.3354C116.506 15.3354 116.972 15.3743 117.441 15.4523C117.909 15.5283 118.38 15.6747 118.854 15.888L117.573 21.2247ZM116.406 17.1916C116.177 17.1434 115.922 17.1193 115.637 17.1193C115.106 17.1193 114.614 17.2361 114.163 17.4679C113.713 17.6997 113.32 18.0094 112.995 18.3951C112.668 18.7826 112.417 19.2258 112.239 19.7246C112.063 20.2253 111.974 20.7482 111.974 21.2953C111.974 21.5697 111.996 21.8256 112.044 22.063C112.092 22.3002 112.171 22.5098 112.284 22.6879C112.397 22.8658 112.548 23.0087 112.737 23.1162C112.927 23.2218 113.169 23.2757 113.466 23.2757C113.845 23.2757 114.18 23.196 114.472 23.0346C114.762 22.8752 115.032 22.6582 115.279 22.3838C115.292 22.0741 115.318 21.783 115.36 21.5104C115.401 21.2359 115.458 20.9614 115.529 20.6888L116.406 17.1916ZM121.563 24.8463C121.26 23.6335 120.987 22.2261 120.748 20.6258C120.504 19.0255 120.347 17.3214 120.275 15.5134H122.481C122.492 16.0382 122.513 16.602 122.542 17.2083C122.572 17.8165 122.614 18.4247 122.662 19.0385C122.709 19.6505 122.766 20.242 122.834 20.8131C122.898 21.3842 122.976 21.9016 123.057 22.3671C123.366 21.9609 123.702 21.4769 124.057 20.9114C124.411 20.3458 124.756 19.7524 125.091 19.1276C125.422 18.5026 125.726 17.8759 125.997 17.2454C126.274 16.6149 126.492 16.0382 126.658 15.5134H128.9C128.616 16.3349 128.259 17.1786 127.832 18.0483C127.403 18.9161 126.939 19.7617 126.442 20.5813C125.942 21.4028 125.43 22.1816 124.897 22.9196C124.372 23.6577 123.87 24.2993 123.394 24.8463H121.563ZM128.881 21.4733C128.881 20.6777 129.009 19.9063 129.264 19.1628C129.519 18.4192 129.886 17.759 130.367 17.1823C130.845 16.6056 131.423 16.1439 132.1 15.799C132.774 15.4541 133.534 15.2817 134.376 15.2817C135.276 15.2817 135.976 15.5134 136.473 15.9789C136.97 16.4425 137.219 17.0359 137.219 17.7628C137.219 18.5119 137.037 19.1183 136.669 19.5818C136.301 20.0472 135.825 20.4088 135.237 20.6703C134.651 20.9336 133.986 21.1117 133.245 21.2062C132.504 21.3008 131.756 21.3601 130.997 21.3842C130.985 21.4083 130.98 21.4325 130.98 21.4566V21.6346C130.98 22.7175 131.66 23.259 133.023 23.259C133.829 23.259 134.637 23.0921 135.442 22.7583L135.619 24.507C135.335 24.6386 134.932 24.7684 134.411 24.9001C133.888 25.0317 133.297 25.0966 132.632 25.0966C131.969 25.0966 131.4 25.002 130.927 24.811C130.451 24.62 130.063 24.3586 129.761 24.0249C129.459 23.6929 129.236 23.3091 129.093 22.8752C128.951 22.4412 128.881 21.9739 128.881 21.4733ZM134.055 17.0488C133.7 17.0488 133.362 17.1193 133.042 17.2621C132.723 17.4049 132.438 17.6014 132.189 17.8517C131.939 18.1021 131.723 18.3951 131.54 18.7344C131.356 19.0737 131.222 19.4391 131.139 19.8322C132.562 19.7839 133.597 19.6115 134.241 19.3149C134.888 19.0181 135.211 18.5713 135.211 17.976C135.211 17.7386 135.124 17.5254 134.952 17.3344C134.781 17.1434 134.481 17.0488 134.055 17.0488Z" fill="#111111"/>
<path fill-rule="evenodd" clip-rule="evenodd" d="M31.6435 26.9324V19.9972C37.0791 20.012 34.3632 13.164 43.1135 12.2146V19.1498C37.6777 19.135 40.3938 25.983 31.6435 26.9324ZM43.1135 26.9324V19.9972C48.5472 20.012 45.8332 13.164 54.5834 12.2146V19.1498C49.1477 19.135 51.8637 25.983 43.1135 26.9324ZM24.7334 19.1498V12.2146H31.6435V19.1498H24.7334Z" fill="#63BFF9"/>
</g>
<defs>
<clipPath id="clip0_140_332">
<rect width="112.5" height="18" fill="white" transform="translate(24.7334 11)"/>
</clipPath>
</defs>
</svg>
