<svg width="160" height="40" viewBox="0 0 160 40" fill="none" xmlns="http://www.w3.org/2000/svg">
<g clip-path="url(#clip0_140_123)">
<path d="M61.9202 23.3294C62.4874 23.3294 62.9383 23.2367 63.2708 23.0531C63.6033 22.8696 63.7678 22.5859 63.7678 22.2057C63.7678 21.8961 63.6624 21.6495 63.4481 21.4658C63.2357 21.2805 62.8625 21.0634 62.3285 20.8131C62.044 20.6833 61.7798 20.5461 61.5377 20.4033C61.2938 20.2605 61.0833 20.0936 60.9059 19.9045C60.7285 19.7135 60.5862 19.4909 60.479 19.2351C60.3719 18.9792 60.3183 18.6732 60.3183 18.3153C60.3183 17.3882 60.6564 16.6502 61.3327 16.1031C62.0089 15.5561 62.9863 15.2817 64.2667 15.2817C64.8598 15.2817 65.39 15.3447 65.8575 15.4689C66.3249 15.5951 66.6779 15.7229 66.9161 15.8528L66.1512 17.5309C65.9498 17.4123 65.6598 17.2954 65.2792 17.1823C64.9004 17.0692 64.5032 17.0136 64.0893 17.0136C63.8861 17.0136 63.6884 17.0303 63.4926 17.0674C63.2967 17.1026 63.123 17.1619 62.9678 17.2454C62.8145 17.3288 62.687 17.4438 62.5853 17.5922C62.4856 17.7424 62.4356 17.9222 62.4356 18.1373C62.4356 18.4099 62.5447 18.6342 62.7646 18.8068C62.9826 18.9792 63.3003 19.1609 63.7142 19.35C64.1059 19.5281 64.4385 19.7023 64.7101 19.8675C64.9835 20.0343 65.2089 20.2216 65.3863 20.4293C65.5637 20.6388 65.6949 20.8705 65.778 21.1265C65.8612 21.3824 65.9018 21.6883 65.9018 22.0444C65.9018 22.4857 65.8131 22.8919 65.6357 23.2664C65.4566 23.6428 65.1997 23.9636 64.8615 24.2307C64.5235 24.4977 64.1059 24.709 63.6089 24.8648C63.1101 25.0187 62.541 25.0966 61.9017 25.0966C61.4638 25.0966 61.0684 25.0669 60.7192 25.0076C60.37 24.9483 60.0652 24.8796 59.8029 24.8018C59.5423 24.7239 59.3243 24.6442 59.1451 24.5607C58.9677 24.4773 58.831 24.4068 58.7368 24.3475L59.5017 22.6526C59.5848 22.6989 59.7068 22.762 59.8656 22.8399C60.0264 22.9159 60.2093 22.99 60.4162 23.0625C60.625 23.1329 60.856 23.196 61.111 23.2497C61.3659 23.3035 61.6357 23.3294 61.9202 23.3294ZM69.5786 23.17C69.6986 23.1922 69.8224 23.2071 69.9536 23.2145C70.0829 23.22 70.2141 23.2218 70.3435 23.2218C70.9125 23.2218 71.4262 23.1124 71.8825 22.8919C72.3389 22.673 72.7287 22.3744 73.0502 21.9999C73.3699 21.6253 73.6156 21.1858 73.7874 20.6797C73.9592 20.1734 74.0442 19.6356 74.0442 19.0645C74.0442 18.803 74.0147 18.5564 73.9555 18.3246C73.8964 18.0928 73.7984 17.887 73.6636 17.7089C73.5269 17.5309 73.3421 17.3882 73.1111 17.2806C72.8803 17.173 72.5865 17.1193 72.2317 17.1193C71.9952 17.1193 71.7699 17.1341 71.5555 17.1638C71.343 17.1953 71.1527 17.2324 70.9864 17.2806L69.5786 23.17ZM76.1967 18.8679C76.1967 19.7135 76.0637 20.5071 75.7958 21.2508C75.5297 21.9943 75.138 22.6452 74.6226 23.2051C74.107 23.7634 73.4789 24.2065 72.7379 24.5348C71.9971 24.8611 71.1472 25.0243 70.1865 25.0243C70.0202 25.0243 69.852 25.0168 69.6802 24.9983C69.5084 24.9798 69.3402 24.9594 69.174 24.9353L68.3887 28.147H66.2399L69.174 15.888C69.6598 15.71 70.2011 15.5672 70.7998 15.4596C71.3984 15.3539 72.0007 15.3002 72.6049 15.3002C73.222 15.3002 73.7578 15.3929 74.2142 15.5765C74.6706 15.76 75.0438 16.0141 75.3338 16.3349C75.6239 16.6557 75.8401 17.034 75.9824 17.4679C76.1246 17.9018 76.1967 18.3691 76.1967 18.8679ZM80.605 25.0243C80.049 25.0132 79.5779 24.9408 79.1917 24.811C78.8073 24.6794 78.4987 24.5014 78.2679 24.2752C78.0369 24.0489 77.8706 23.7819 77.769 23.4722C77.6693 23.1625 77.6194 22.825 77.6194 22.456C77.6194 22.0741 77.6637 21.6735 77.7523 21.2508C77.841 20.8279 77.9389 20.4088 78.0461 19.9935L80.1081 11.3561L82.3474 11C81.9778 12.5576 81.6065 14.1079 81.237 15.6469C80.8656 17.1879 80.4924 18.7381 80.1099 20.2958C80.0545 20.5461 79.9917 20.7927 79.9233 21.0375C79.8549 21.2805 79.8236 21.5215 79.8236 21.7588C79.8236 21.9609 79.8254 22.1482 79.8329 22.3207C79.8383 22.495 79.8864 22.6433 79.975 22.7676C80.0637 22.8919 80.1968 22.9976 80.3742 23.0791C80.5515 23.1625 80.7843 23.2163 81.067 23.2404L80.605 25.0243ZM84.4814 24.8463H82.3308L84.5701 15.5134H86.7226L84.4814 24.8463ZM86.0814 14.1041C85.7618 14.1041 85.4828 14.0096 85.2463 13.8186C85.0098 13.6294 84.8897 13.3439 84.8897 12.9619C84.8897 12.5224 85.0412 12.159 85.3442 11.8734C85.6454 11.5878 85.9927 11.445 86.3844 11.445C86.7041 11.445 86.9849 11.5434 87.2287 11.7399C87.4708 11.9364 87.5927 12.2257 87.5927 12.6058C87.5927 13.0453 87.4394 13.405 87.1308 13.6851C86.8223 13.9651 86.4731 14.1041 86.0814 14.1041ZM89.7434 13.0509L91.9845 12.6949L91.3065 15.5134H94.3495L93.9227 17.2992H90.8759L89.9873 20.9929C89.93 21.2544 89.8893 21.4713 89.8653 21.6439C89.845 21.8163 89.8339 21.9739 89.8339 22.1167C89.8339 22.2595 89.8487 22.3986 89.8782 22.5358C89.9078 22.673 89.9669 22.7916 90.0557 22.8919C90.1443 22.9938 90.2755 23.0772 90.4473 23.1421C90.6192 23.2071 90.852 23.2404 91.1495 23.2404C91.4691 23.2404 91.7776 23.1996 92.0732 23.1162C92.3688 23.0328 92.6311 22.9437 92.8547 22.8474L93.0155 24.5793C92.7439 24.6979 92.3984 24.811 91.9845 24.9187C91.5688 25.0243 91.0829 25.078 90.5268 25.078C89.5069 25.078 88.7789 24.8556 88.3392 24.4086C87.9013 23.9636 87.6814 23.3536 87.6814 22.5803C87.6814 22.2947 87.7017 21.9999 87.7442 21.6976C87.7849 21.3935 87.8477 21.069 87.9309 20.7241L89.7434 13.0509ZM101.683 18.9403C101.457 19.4521 101.202 19.9787 100.918 20.5201C100.637 21.0598 100.341 21.5901 100.033 22.1074C99.7242 22.6248 99.4156 23.118 99.1089 23.589C98.8003 24.0582 98.5158 24.4773 98.2571 24.8463H96.4853C96.3763 24.2993 96.2692 23.6744 96.1694 22.9734C96.064 22.2706 95.9698 21.5215 95.8867 20.7241C95.8017 19.9268 95.724 19.0886 95.6594 18.2078C95.5929 17.3288 95.5467 16.4294 95.5227 15.5134H97.6567C97.6567 16.0141 97.6622 16.5518 97.6733 17.1286C97.6862 17.7053 97.7066 18.2949 97.7398 18.8957C97.7694 19.4965 97.8046 20.088 97.8488 20.6703C97.8894 21.2544 97.9467 21.8015 98.0207 22.3132C98.3532 21.8015 98.6821 21.2563 99.0073 20.6797C99.3362 20.1029 99.6466 19.5206 99.944 18.931C100.24 18.3431 100.515 17.7571 100.77 17.173C101.025 16.5908 101.247 16.0382 101.437 15.5134H103.29C103.29 16.0011 103.296 16.5185 103.307 17.0674C103.32 17.6144 103.336 18.1781 103.366 18.7622C103.395 19.3445 103.43 19.936 103.473 20.5368C103.514 21.1376 103.567 21.7291 103.639 22.3132C103.948 21.8608 104.264 21.3435 104.583 20.7593C104.905 20.1771 105.212 19.5799 105.511 18.9662C105.809 18.3543 106.078 17.7479 106.32 17.1471C106.566 16.5463 106.766 16.0011 106.919 15.5134H109.16C108.91 16.2274 108.606 16.9858 108.24 17.7887C107.879 18.5916 107.469 19.4038 107.017 20.2253C106.566 21.0449 106.08 21.8515 105.562 22.6433C105.043 23.4333 104.508 24.1676 103.948 24.8463H102.183C102.054 23.8468 101.941 22.8622 101.853 21.8942C101.764 20.9244 101.707 19.9397 101.683 18.9403ZM116.84 21.2247C116.805 21.3546 116.768 21.5697 116.733 21.8664C116.698 22.1649 116.679 22.4431 116.679 22.7045C116.679 23.0494 116.71 23.3869 116.768 23.7132C116.828 24.0396 116.923 24.3697 117.053 24.7035L115.133 24.9891C114.991 24.7035 114.879 24.4012 114.795 24.0786C114.5 24.3419 114.134 24.5755 113.701 24.7833C113.269 24.9927 112.781 25.0966 112.234 25.0966C111.678 25.0966 111.201 25.0038 110.804 24.8203C110.407 24.6348 110.084 24.379 109.834 24.0526C109.587 23.7262 109.402 23.3424 109.284 22.9011C109.166 22.4616 109.106 21.985 109.106 21.4733C109.106 20.6055 109.259 19.7969 109.568 19.0478C109.876 18.2987 110.305 17.6496 110.858 17.1026C111.408 16.5556 112.063 16.1235 112.822 15.8082C113.582 15.493 114.411 15.3354 115.311 15.3354C115.773 15.3354 116.238 15.3743 116.707 15.4523C117.175 15.5283 117.646 15.6747 118.121 15.888L116.84 21.2247ZM115.673 17.1916C115.444 17.1434 115.188 17.1193 114.904 17.1193C114.372 17.1193 113.881 17.2361 113.43 17.4679C112.979 17.6997 112.587 18.0094 112.262 18.3951C111.935 18.7826 111.684 19.2258 111.506 19.7246C111.329 20.2253 111.24 20.7482 111.24 21.2953C111.24 21.5697 111.262 21.8256 111.31 22.063C111.359 22.3002 111.438 22.5098 111.551 22.6879C111.663 22.8658 111.815 23.0087 112.003 23.1162C112.193 23.2218 112.435 23.2757 112.733 23.2757C113.112 23.2757 113.446 23.196 113.738 23.0346C114.028 22.8752 114.298 22.6582 114.546 22.3838C114.558 22.0741 114.584 21.783 114.627 21.5104C114.668 21.2359 114.725 20.9614 114.795 20.6888L115.673 17.1916ZM120.83 24.8463C120.526 23.6335 120.253 22.2261 120.015 20.6258C119.771 19.0255 119.613 17.3214 119.542 15.5134H121.748C121.759 16.0382 121.779 16.602 121.809 17.2083C121.838 17.8165 121.881 18.4247 121.929 19.0385C121.975 19.6505 122.032 20.242 122.101 20.8131C122.165 21.3842 122.243 21.9016 122.324 22.3671C122.633 21.9609 122.969 21.4769 123.323 20.9114C123.678 20.3458 124.022 19.7524 124.358 19.1276C124.689 18.5026 124.992 17.8759 125.264 17.2454C125.541 16.6149 125.759 16.0382 125.925 15.5134H128.167C127.882 16.3349 127.525 17.1786 127.099 18.0483C126.67 18.9161 126.206 19.7617 125.709 20.5813C125.208 21.4028 124.696 22.1816 124.164 22.9196C123.638 23.6577 123.137 24.2993 122.661 24.8463H120.83ZM128.148 21.4733C128.148 20.6777 128.275 19.9063 128.53 19.1628C128.785 18.4192 129.153 17.759 129.633 17.1823C130.112 16.6056 130.69 16.1439 131.366 15.799C132.041 15.4541 132.8 15.2817 133.642 15.2817C134.542 15.2817 135.243 15.5134 135.739 15.9789C136.237 16.4425 136.486 17.0359 136.486 17.7628C136.486 18.5119 136.303 19.1183 135.936 19.5818C135.568 20.0472 135.091 20.4088 134.503 20.6703C133.918 20.9336 133.253 21.1117 132.512 21.2062C131.771 21.3008 131.022 21.3601 130.263 21.3842C130.252 21.4083 130.246 21.4325 130.246 21.4566V21.6346C130.246 22.7175 130.926 23.259 132.29 23.259C133.095 23.259 133.903 23.0921 134.709 22.7583L134.886 24.507C134.601 24.6386 134.198 24.7684 133.678 24.9001C133.155 25.0317 132.564 25.0966 131.899 25.0966C131.235 25.0966 130.666 25.002 130.193 24.811C129.718 24.62 129.33 24.3586 129.028 24.0249C128.726 23.6929 128.503 23.3091 128.36 22.8752C128.218 22.4412 128.148 21.9739 128.148 21.4733ZM133.321 17.0488C132.967 17.0488 132.628 17.1193 132.309 17.2621C131.989 17.4049 131.705 17.6014 131.455 17.8517C131.206 18.1021 130.99 18.3951 130.806 18.7344C130.622 19.0737 130.488 19.4391 130.405 19.8322C131.829 19.7839 132.863 19.6115 133.508 19.3149C134.154 19.0181 134.478 18.5713 134.478 17.976C134.478 17.7386 134.391 17.5254 134.219 17.3344C134.048 17.1434 133.748 17.0488 133.321 17.0488Z" fill="white"/>
<path fill-rule="evenodd" clip-rule="evenodd" d="M30.9101 26.9324V19.9972C36.3457 20.012 33.6298 13.164 42.3801 12.2146V19.1498C36.9443 19.135 39.6604 25.983 30.9101 26.9324ZM42.3801 26.9324V19.9972C47.8138 20.012 45.0998 13.164 53.85 12.2146V19.1498C48.4143 19.135 51.1303 25.983 42.3801 26.9324ZM24 19.1498V12.2146H30.9101V19.1498H24Z" fill="#63BFF9"/>
</g>
<defs>
<clipPath id="clip0_140_123">
<rect width="112.5" height="18" fill="white" transform="translate(24 11)"/>
</clipPath>
</defs>
</svg>
