<svg width="160" height="40" viewBox="0 0 160 40" fill="none" xmlns="http://www.w3.org/2000/svg">
<g clip-path="url(#clip0_140_89)">
<path d="M51.7818 15.6699H47.3798V27.56H44.4233V15.6699H40V13.16H51.7818V15.6699Z" fill="white"/>
<path fill-rule="evenodd" clip-rule="evenodd" d="M57.7611 27.2223C58.5092 26.9977 59.0983 26.7212 59.5335 26.3943L58.5998 24.6555C58.3531 24.8327 57.993 25.0069 57.5232 25.1768C57.0505 25.3475 56.5166 25.4324 55.9216 25.4324C54.9644 25.4324 54.2722 25.2143 53.8451 24.7779C53.4173 24.3416 53.1816 23.6943 53.1382 22.8354H59.6646C59.7367 22.4804 59.792 22.1399 59.8295 21.8123C59.8641 21.4854 59.8818 21.1787 59.8818 20.8921C59.8818 20.1008 59.7596 19.4399 59.5136 18.9078C59.2669 18.3757 58.9393 17.9531 58.5328 17.6399C58.1211 17.3234 57.6471 17.0935 57.1403 16.9645C56.615 16.8277 56.0735 16.759 55.5299 16.76C53.8775 16.76 52.594 17.21 51.6802 18.11C50.7656 19.01 50.3091 20.36 50.3091 22.16C50.3091 23.8376 50.7156 25.1567 51.5278 26.1179C52.34 27.0798 53.6227 27.56 55.3789 27.56C56.2206 27.56 57.0151 27.4477 57.7611 27.2223ZM53.8451 19.5111C54.2 19.0957 54.7464 18.8869 55.4865 18.8869C56.1249 18.8869 56.5947 19.0849 56.8907 19.4802C57.1897 19.8762 57.3082 20.4421 57.25 21.1779H53.203C53.2759 20.4824 53.4894 19.9273 53.8451 19.5111Z" fill="white"/>
<path d="M68.7182 26.6399C68.2896 26.9394 67.7727 27.1683 67.1644 27.3246C66.5526 27.4822 65.9224 27.5613 65.2897 27.56C64.4325 27.56 63.7065 27.4304 63.1152 27.1712C62.5209 26.912 62.0379 26.5477 61.6667 26.0768C61.2956 25.6067 61.0298 25.0371 60.8641 24.369C60.7014 23.7008 60.6182 22.965 60.6182 22.16C60.6182 20.4284 61.0239 19.0957 61.8383 18.1611C62.6527 17.228 63.8383 16.76 65.395 16.76C66.1807 16.76 66.8154 16.8212 67.2926 16.9443C67.7407 17.0556 68.1754 17.2132 68.5893 17.4145L67.9236 19.5824C67.6105 19.4378 67.2844 19.3216 66.9494 19.2354C66.5886 19.1488 66.2179 19.1074 65.8463 19.1123C65.0754 19.1123 64.4892 19.3542 64.0894 19.8387C63.6895 20.3226 63.49 21.0966 63.49 22.16C63.49 22.5963 63.5378 22.9988 63.638 23.3667C63.7381 23.7354 63.8898 24.0558 64.0894 24.3279C64.2897 24.6015 64.5496 24.8161 64.8721 24.9723C65.1925 25.1293 65.5665 25.2078 65.9951 25.2078C66.4664 25.2078 66.8669 25.1502 67.1954 25.0343C67.5042 24.9279 67.7995 24.787 68.0753 24.6145L68.7182 26.6399Z" fill="white"/>
<path fill-rule="evenodd" clip-rule="evenodd" d="M121 11.6494C121 11.5641 120.983 11.4795 120.949 11.4007C120.916 11.3218 120.866 11.2502 120.805 11.1899C120.743 11.1296 120.669 11.0818 120.589 11.0492C120.508 11.0166 120.422 10.9999 120.334 11H72.33C71.9618 11 71.6636 11.2909 71.6636 11.6494V28.3506C71.6636 28.7091 71.9618 29 72.33 29H120.334C120.422 29.0001 120.508 28.9834 120.589 28.9508C120.669 28.9182 120.743 28.8704 120.805 28.8101C120.866 28.7498 120.916 28.6782 120.949 28.5993C120.983 28.5205 121 28.4359 121 28.3506V11.6494ZM97.0608 21.8367C97.0608 20.0425 97.5099 18.6615 98.4083 17.6931C99.3067 16.7254 100.567 16.2416 102.189 16.2416C103.058 16.2416 103.811 16.3755 104.449 16.6441C105.061 16.8947 105.604 17.2833 106.034 17.7781C106.455 18.2655 106.769 18.8552 106.98 19.5478C107.19 20.2398 107.295 21.0022 107.295 21.8367C107.295 23.631 106.85 25.0119 105.958 25.9796C105.067 26.948 103.811 27.4318 102.189 27.4318C101.32 27.4318 100.567 27.2972 99.9289 27.0286C99.3142 26.7765 98.7675 26.3886 98.3317 25.8954C97.9046 25.4079 97.5858 24.8175 97.3759 24.1256C97.1661 23.433 97.0608 22.6712 97.0608 21.8367ZM86.2612 27.1352V21.3702C86.2612 20.3953 86.167 19.7026 85.9785 19.293C85.7907 18.8833 85.4004 18.6788 84.8055 18.6788C84.3136 18.6788 83.9145 18.8091 83.6103 19.0705C83.3062 19.3318 83.075 19.6681 82.9152 20.0778V27.1352H80.0905V16.5382H82.2849L82.6111 17.9365H82.698C83.0462 17.4703 83.4766 17.0685 83.9689 16.7499C84.4837 16.4115 85.1464 16.2416 85.9571 16.2416C86.6523 16.2416 87.2207 16.3784 87.6633 16.6549C88.1051 16.9299 88.4497 17.3929 88.6957 18.043C89.0093 17.5113 89.4486 17.0607 89.9769 16.729C90.4998 16.4036 91.1286 16.2416 91.8672 16.2416C92.4762 16.2416 92.9938 16.3122 93.4209 16.4533C93.837 16.5864 94.201 16.8416 94.4636 17.1841C94.7324 17.5304 94.9312 17.9934 95.0615 18.573C95.1919 19.1518 95.2581 19.887 95.2581 20.7762V27.1352H92.432V21.1794C92.432 20.3456 92.3429 19.7206 92.161 19.3038C91.9798 18.8869 91.5778 18.6788 90.9548 18.6788C90.4482 18.6788 90.0454 18.8127 89.7494 19.0813C89.4519 19.3498 89.231 19.717 89.0859 20.1829V27.1352H86.2612ZM74.5067 16.5382H77.3314V27.1352H74.5059L74.5067 16.5382ZM99.9723 21.8367C99.9723 22.3026 100.015 22.7338 100.103 23.1291C100.19 23.5251 100.321 23.8707 100.494 24.1681C100.667 24.4647 100.896 24.6937 101.178 24.8564C101.461 25.0191 101.797 25.1005 102.189 25.1005C102.927 25.1005 103.477 24.8391 103.84 24.3157C104.202 23.7937 104.384 22.9671 104.384 21.8367C104.384 20.8618 104.217 20.0742 103.883 19.4737C103.55 18.8725 102.985 18.573 102.189 18.573C101.494 18.573 100.95 18.8271 100.558 19.3362C100.168 19.8445 99.9723 20.6782 99.9723 21.8367ZM114.097 18.6147C113.574 18.6147 113.151 18.7458 112.825 19.0071C112.499 19.2685 112.25 19.6465 112.074 20.1411V24.7614C112.311 24.8757 112.564 24.9544 112.825 24.9946C113.094 25.0364 113.379 25.058 113.683 25.058C114.451 25.058 115.035 24.7858 115.432 24.2422C115.831 23.6979 116.03 22.8325 116.03 21.6459C116.03 19.6256 115.385 18.6147 114.097 18.6147ZM109.205 12.2226H111.926L112.074 17.3857H112.162C112.466 17.0473 112.857 16.778 113.335 16.5807C113.814 16.3827 114.342 16.2834 114.922 16.2834C116.225 16.2834 117.222 16.7182 117.91 17.5866C118.597 18.4563 118.941 19.7804 118.941 21.561C118.941 23.469 118.46 24.9162 117.497 25.9062C116.533 26.8947 115.211 27.3894 113.531 27.3894C112.605 27.3894 111.757 27.3152 110.989 27.1662C110.221 27.0186 109.642 26.8522 109.251 26.6694L109.205 12.2226ZM74.0936 13.5488C74.0936 13.1391 74.2489 12.7892 74.5604 12.4998C74.8719 12.2103 75.3034 12.0656 75.8535 12.0656C76.4043 12.0656 76.849 12.2096 77.19 12.4998C77.5302 12.7892 77.7003 13.1391 77.7003 13.5488C77.7003 13.9592 77.5309 14.3012 77.19 14.577C76.849 14.8527 76.4043 14.9902 75.8535 14.9902C75.3034 14.9902 74.8719 14.8527 74.5604 14.577C74.4105 14.4494 74.291 14.2912 74.2103 14.1135C74.1297 13.9359 74.0898 13.7431 74.0936 13.5488Z" fill="#0057B7"/>
</g>
<defs>
<clipPath id="clip0_140_89">
<rect width="81" height="18" fill="white" transform="translate(40 11)"/>
</clipPath>
</defs>
</svg>
