<svg width="161" height="40" viewBox="0 0 161 40" fill="none" xmlns="http://www.w3.org/2000/svg">
<g clip-path="url(#clip0_140_310)">
<path d="M52.5152 15.6699H48.1132V27.56H45.1567V15.6699H40.7334V13.16H52.5152V15.6699Z" fill="#111111"/>
<path fill-rule="evenodd" clip-rule="evenodd" d="M58.4945 27.2223C59.2426 26.9977 59.8317 26.7212 60.2669 26.3943L59.3332 24.6555C59.0865 24.8327 58.7264 25.0069 58.2566 25.1768C57.7839 25.3475 57.25 25.4324 56.655 25.4324C55.6978 25.4324 55.0056 25.2143 54.5785 24.7779C54.1507 24.3416 53.915 23.6943 53.8716 22.8354H60.398C60.4701 22.4804 60.5254 22.1399 60.5629 21.8123C60.5975 21.4854 60.6152 21.1787 60.6152 20.8921C60.6152 20.1008 60.493 19.4399 60.247 18.9078C60.0003 18.3757 59.6727 17.9531 59.2662 17.6399C58.8545 17.3234 58.3805 17.0935 57.8737 16.9645C57.3484 16.8277 56.8069 16.759 56.2633 16.76C54.6109 16.76 53.3274 17.21 52.4136 18.11C51.499 19.01 51.0425 20.36 51.0425 22.16C51.0425 23.8376 51.449 25.1567 52.2612 26.1179C53.0734 27.0798 54.3561 27.56 56.1123 27.56C56.954 27.56 57.7485 27.4477 58.4945 27.2223ZM54.5785 19.5111C54.9334 19.0957 55.4798 18.8869 56.2199 18.8869C56.8583 18.8869 57.3281 19.0849 57.6241 19.4802C57.9231 19.8762 58.0416 20.4421 57.9834 21.1779H53.9364C54.0093 20.4824 54.2228 19.9273 54.5785 19.5111Z" fill="#111111"/>
<path d="M69.4516 26.6399C69.023 26.9394 68.5061 27.1683 67.8978 27.3246C67.286 27.4822 66.6558 27.5613 66.0231 27.56C65.1659 27.56 64.4399 27.4304 63.8486 27.1712C63.2543 26.912 62.7713 26.5477 62.4001 26.0768C62.029 25.6067 61.7632 25.0371 61.5975 24.369C61.4348 23.7008 61.3516 22.965 61.3516 22.16C61.3516 20.4284 61.7573 19.0957 62.5717 18.1611C63.3861 17.228 64.5717 16.76 66.1284 16.76C66.9141 16.76 67.5488 16.8212 68.026 16.9443C68.4741 17.0556 68.9088 17.2132 69.3227 17.4145L68.657 19.5824C68.3439 19.4378 68.0178 19.3216 67.6828 19.2354C67.322 19.1488 66.9513 19.1074 66.5797 19.1123C65.8088 19.1123 65.2226 19.3542 64.8228 19.8387C64.4229 20.3226 64.2234 21.0966 64.2234 22.16C64.2234 22.5963 64.2712 22.9988 64.3714 23.3667C64.4715 23.7354 64.6232 24.0558 64.8228 24.3279C65.0231 24.6015 65.283 24.8161 65.6055 24.9723C65.9259 25.1293 66.2999 25.2078 66.7285 25.2078C67.1998 25.2078 67.6003 25.1502 67.9288 25.0343C68.2376 24.9279 68.5329 24.787 68.8087 24.6145L69.4516 26.6399Z" fill="#111111"/>
<path fill-rule="evenodd" clip-rule="evenodd" d="M121.733 11.6494C121.733 11.5641 121.716 11.4795 121.682 11.4007C121.649 11.3218 121.6 11.2502 121.538 11.1899C121.476 11.1296 121.403 11.0818 121.322 11.0492C121.241 11.0166 121.155 10.9999 121.068 11H73.0634C72.6952 11 72.397 11.2909 72.397 11.6494V28.3506C72.397 28.7091 72.6952 29 73.0634 29H121.068C121.155 29.0001 121.241 28.9834 121.322 28.9508C121.403 28.9182 121.476 28.8704 121.538 28.8101C121.6 28.7498 121.649 28.6782 121.682 28.5993C121.716 28.5205 121.733 28.4359 121.733 28.3506V11.6494ZM97.7942 21.8367C97.7942 20.0425 98.2433 18.6615 99.1417 17.6931C100.04 16.7254 101.3 16.2416 102.922 16.2416C103.791 16.2416 104.544 16.3755 105.182 16.6441C105.795 16.8947 106.338 17.2833 106.767 17.7781C107.189 18.2655 107.502 18.8552 107.714 19.5478C107.924 20.2398 108.028 21.0022 108.028 21.8367C108.028 23.631 107.583 25.0119 106.692 25.9796C105.801 26.948 104.544 27.4318 102.922 27.4318C102.053 27.4318 101.3 27.2972 100.662 27.0286C100.048 26.7765 99.5009 26.3886 99.0651 25.8954C98.638 25.4079 98.3192 24.8175 98.1093 24.1256C97.8995 23.433 97.7942 22.6712 97.7942 21.8367ZM86.9946 27.1352V21.3702C86.9946 20.3953 86.9004 19.7026 86.7119 19.293C86.5241 18.8833 86.1338 18.6788 85.5389 18.6788C85.047 18.6788 84.6479 18.8091 84.3437 19.0705C84.0396 19.3318 83.8084 19.6681 83.6486 20.0778V27.1352H80.8239V16.5382H83.0183L83.3445 17.9365H83.4314C83.7796 17.4703 84.21 17.0685 84.7023 16.7499C85.2171 16.4115 85.8798 16.2416 86.6905 16.2416C87.3857 16.2416 87.9541 16.3784 88.3967 16.6549C88.8385 16.9299 89.1831 17.3929 89.4291 18.043C89.7427 17.5113 90.182 17.0607 90.7103 16.729C91.2332 16.4036 91.862 16.2416 92.6006 16.2416C93.2096 16.2416 93.7272 16.3122 94.1543 16.4533C94.5704 16.5864 94.9344 16.8416 95.197 17.1841C95.4658 17.5304 95.6646 17.9934 95.7949 18.573C95.9253 19.1518 95.9915 19.887 95.9915 20.7762V27.1352H93.1654V21.1794C93.1654 20.3456 93.0763 19.7206 92.8944 19.3038C92.7132 18.8869 92.3112 18.6788 91.6882 18.6788C91.1816 18.6788 90.7788 18.8127 90.4828 19.0813C90.1853 19.3498 89.9644 19.717 89.8193 20.1829V27.1352H86.9946ZM75.2401 16.5382H78.0648V27.1352H75.2393L75.2401 16.5382ZM100.706 21.8367C100.706 22.3026 100.748 22.7338 100.836 23.1291C100.924 23.5251 101.054 23.8707 101.228 24.1681C101.401 24.4647 101.629 24.6937 101.911 24.8564C102.194 25.0191 102.53 25.1005 102.922 25.1005C103.661 25.1005 104.211 24.8391 104.574 24.3157C104.935 23.7937 105.117 22.9671 105.117 21.8367C105.117 20.8618 104.95 20.0742 104.617 19.4737C104.284 18.8725 103.718 18.573 102.922 18.573C102.227 18.573 101.684 18.8271 101.292 19.3362C100.902 19.8445 100.706 20.6782 100.706 21.8367ZM114.83 18.6147C114.307 18.6147 113.884 18.7458 113.558 19.0071C113.233 19.2685 112.983 19.6465 112.808 20.1411V24.7614C113.045 24.8757 113.298 24.9544 113.558 24.9946C113.827 25.0364 114.113 25.058 114.417 25.058C115.185 25.058 115.768 24.7858 116.166 24.2422C116.564 23.6979 116.764 22.8325 116.764 21.6459C116.764 19.6256 116.119 18.6147 114.83 18.6147ZM109.938 12.2226H112.66L112.808 17.3857H112.896C113.2 17.0473 113.591 16.778 114.069 16.5807C114.547 16.3827 115.076 16.2834 115.655 16.2834C116.959 16.2834 117.955 16.7182 118.644 17.5866C119.331 18.4563 119.674 19.7804 119.674 21.561C119.674 23.469 119.194 24.9162 118.23 25.9062C117.267 26.8947 115.945 27.3894 114.264 27.3894C113.338 27.3894 112.491 27.3152 111.722 27.1662C110.954 27.0186 110.375 26.8522 109.984 26.6694L109.938 12.2226ZM74.827 13.5488C74.827 13.1391 74.9823 12.7892 75.2938 12.4998C75.6053 12.2103 76.0368 12.0656 76.5869 12.0656C77.1377 12.0656 77.5824 12.2096 77.9234 12.4998C78.2636 12.7892 78.4337 13.1391 78.4337 13.5488C78.4337 13.9592 78.2643 14.3012 77.9234 14.577C77.5824 14.8527 77.1377 14.9902 76.5869 14.9902C76.0368 14.9902 75.6053 14.8527 75.2938 14.577C75.1439 14.4494 75.0244 14.2912 74.9437 14.1135C74.8631 13.9359 74.8232 13.7431 74.827 13.5488Z" fill="#0057B7"/>
</g>
<defs>
<clipPath id="clip0_140_310">
<rect width="81" height="18" fill="white" transform="translate(40.7334 11)"/>
</clipPath>
</defs>
</svg>
