<svg width="405" height="1179" viewBox="0 0 405 1179" fill="none" xmlns="http://www.w3.org/2000/svg">
<path d="M403 -364V-270.657M403 1225V1122.43M21.3438 24.9287V793.968M43.888 819.429V-1.30713M69.8533 -27.5314V848.753M102.512 885.637V-60.5157M141.448 -99.8399V929.61M180.998 974.277V-139.784M240.57 1041.56V-199.95M311.837 1122.04V-271.928M0 460.167L403 524.928M403 426.52L0 411.687M403 426.52V327.75M403 426.52V524.928M403 327.75L0 369.719M403 327.75V226.086M403 226.086L0 318.344M403 226.086V124.422M403 124.422L0 274.567M403 124.422V24.9287M0 226.086L403 24.9287M403 24.9287V-72.3939M0 182.671L403 -72.3939M403 -72.3939V-177.314M0 142.15L403 -177.314M403 -177.314V-270.657M0 92.5843L403 -270.657M403 524.928V624.783M0 503.944L403 624.783M403 624.783V723.553M0 549.169L403 723.553M403 723.553V819.429M0 597.649L403 819.429M403 819.429V915.666M0 644.32L403 915.666M403 915.666V1019.86M0 684.118L403 1019.86M403 1019.86V1122.43M0 726.99L403 1122.43" stroke="black" stroke-opacity="0.15" stroke-width="2.5"/>
</svg>
