<svg width="404" height="1179" viewBox="0 0 404 1179" fill="none" xmlns="http://www.w3.org/2000/svg">
<path d="M0 -364V-270.657M0 1225V1122.43M381.656 24.9287V793.968M359.112 819.429V-1.30713M333.147 -27.5314V848.753M300.488 885.637V-60.5157M261.552 -99.8399V929.61M222.002 974.277V-139.784M162.43 1041.56V-199.95M91.1634 1122.04V-271.928M403 460.167L0 524.928M0 426.52L403 411.687M0 426.52V327.75M0 426.52V524.928M0 327.75L403 369.719M0 327.75V226.086M0 226.086L403 318.344M0 226.086V124.422M0 124.422L403 274.567M0 124.422V24.9287M403 226.086L0 24.9287M0 24.9287V-72.3939M403 182.671L0 -72.3939M0 -72.3939V-177.314M403 142.15L0 -177.314M0 -177.314V-270.657M403 92.5843L0 -270.657M0 524.928V624.783M403 503.944L0 624.783M0 624.783V723.553M403 549.169L0 723.553M0 723.553V819.429M403 597.649L0 819.429M0 819.429V915.666M403 644.32L0 915.666M0 915.666V1019.86M403 684.118L0 1019.86M0 1019.86V1122.43M403 726.99L0 1122.43" stroke="black" stroke-opacity="0.15" stroke-width="2.5"/>
</svg>
