<svg width="403" height="1179" viewBox="0 0 403 1179" fill="none" xmlns="http://www.w3.org/2000/svg">
<path d="M20.0938 24.9287V72.79L1.25 89.7747V43.5326L42.638 1.73193V52.47L22.5938 70.5367V24.9287H20.0938ZM1.25 93.1404L20.0938 76.1557V124.626L1.25 139.564V93.1404ZM1.25 142.754L20.0938 127.816V168.474L1.25 180.401V142.754ZM22.5938 166.892V125.835L42.638 109.945V154.206L22.5938 166.892ZM1.25 183.359L20.0938 171.433V214.659L1.25 224.065V183.359ZM22.5938 213.412V169.85L42.638 157.164V203.406L22.5938 213.412ZM1.25 226.859L20.0938 217.454V265.746L1.25 272.767V226.859ZM22.5938 264.815V216.206L42.638 206.201V257.347L22.5938 264.815ZM1.25 275.435L20.0938 268.414V312.461L1.25 316.775V275.435ZM22.5938 311.889V267.483L42.638 260.015V307.3L22.5938 311.889ZM1.25 319.34L20.0938 315.026V366.369L1.25 368.332V319.34ZM22.5938 366.109V314.454L42.638 309.865V364.022L22.5938 366.109ZM1.25 370.845L20.0938 368.883V411.175L1.25 410.482V370.845ZM22.5938 411.268V368.622L42.638 366.535V412.005L22.5938 411.268ZM1.25 412.984L20.0938 413.677V462.13L1.25 459.102V412.984ZM22.5938 462.532V413.769L42.638 414.507V465.753L22.5938 462.532ZM1.25 461.634L20.0938 464.662V508.664L1.25 503.014V461.634ZM22.5938 509.414V465.064L42.638 468.285V515.424L22.5938 509.414ZM1.25 505.624L20.0938 511.274V556.501L1.25 548.347V505.624ZM22.5938 557.583V512.024L42.638 518.034V566.257L22.5938 557.583ZM1.25 551.071L20.0938 559.225V607.28L1.25 596.91V551.071ZM22.5938 608.656V560.307L42.638 568.981V619.687L22.5938 608.656ZM1.25 599.764L20.0938 610.134V656.343L1.25 643.655V599.764ZM22.5938 658.026V611.51L42.638 622.54V671.522L22.5938 658.026ZM1.25 646.669L20.0938 659.357V699.231L1.25 683.532V646.669ZM22.5938 701.314V661.04L42.638 674.536V718.013L22.5938 701.314ZM1.25 686.786L20.0938 702.485V744.956L1.25 726.466V686.786ZM22.5938 747.409V704.568L42.638 721.267V767.077L22.5938 747.409ZM1.25 729.968L20.0938 748.458V790.671L1.25 769.389V729.968ZM22.5938 793.494V750.912L42.638 770.58V816.131L22.5938 793.494ZM45.138 50.2166V-0.792999L68.6033 -24.4924V29.0663L45.138 50.2166ZM71.1033 26.8129V-27.0173L101.262 -57.4766V-0.370361L71.1033 26.8129ZM103.762 -2.62372V-60.0016L140.198 -96.8008V-35.4651L103.762 -2.62372ZM142.698 -37.7184V-99.3258L179.748 -136.745V-71.1129L142.698 -37.7184ZM182.248 -73.3663V-139.27L239.32 -196.911V-124.808L182.248 -73.3663ZM241.82 -127.061V-199.436L310.587 -268.889V-189.044L241.82 -127.061ZM313.087 -191.297V-271.413L401.75 -360.961V-271.213L313.087 -191.297ZM313.087 -187.931L401.75 -267.848V-177.918L313.087 -107.634V-187.931ZM313.087 -104.443L401.75 -174.728V-73.0821L313.087 -16.9656V-104.443ZM313.087 -14.007L401.75 -70.1234V24.1556L313.087 68.412V-14.007ZM313.087 71.2061L401.75 26.9497V123.554L313.087 156.587V71.2061ZM313.087 159.255L401.75 126.222V225.09L313.087 245.388V159.255ZM313.087 247.952L401.75 227.655V326.624L313.087 335.857V247.952ZM313.087 338.371L401.75 329.137V425.223L313.087 421.96V338.371ZM313.087 424.462L401.75 427.725V523.461L313.087 509.213V424.462ZM313.087 511.745L401.75 525.993V623.104L313.087 596.518V511.745ZM313.087 599.128L401.75 625.714V721.65L313.087 683.284V599.128ZM313.087 686.008L401.75 724.375V817.314L313.087 768.521V686.008ZM313.087 771.374L401.75 820.168V913.317L313.087 853.619V771.374ZM313.087 856.633L401.75 916.331V1017.19L313.087 943.328V856.633ZM313.087 946.582L401.75 1020.45V1119.45L313.087 1032.45V946.582ZM313.087 1035.96L401.75 1122.96V1221.7L313.087 1121.57V1035.96ZM310.587 1033.5V1118.75L241.82 1041.08V966.026L310.587 1033.5ZM239.32 963.573V1038.26L182.248 973.803V907.571L239.32 963.573ZM179.748 905.118V970.979L142.698 929.136V868.763L179.748 905.118ZM140.198 866.31V926.313L103.762 885.163V830.557L140.198 866.31ZM101.262 828.104V882.34L71.1033 848.279V798.511L101.262 828.104ZM68.6033 796.058V845.456L45.138 818.955V773.033L68.6033 796.058ZM68.6033 792.556L45.138 769.53V723.35L68.6033 742.899V792.556ZM68.6033 739.645L45.138 720.096V676.219L68.6033 692.019V739.645ZM68.6033 689.005L45.138 673.205V623.916L68.6033 636.83V689.005ZM68.6033 633.976L45.138 621.063V570.062L68.6033 580.216V633.976ZM68.6033 577.492L45.138 567.338V518.784L68.6033 525.82V577.492ZM68.6033 523.21L45.138 516.174V468.687L68.6033 472.458V523.21ZM68.6033 469.925L45.138 466.155V414.599L68.6033 415.463V469.925ZM68.6033 412.961L45.138 412.097V366.275L68.6033 363.831V412.961ZM68.6033 361.318L45.138 363.761V309.293L68.6033 303.921V361.318ZM68.6033 301.356L45.138 306.728V259.084L68.6033 250.341V301.356ZM68.6033 247.673L45.138 256.416V204.953L68.6033 193.24V247.673ZM68.6033 190.446L45.138 202.159V155.582L68.6033 140.73V190.446ZM68.6033 137.772L45.138 152.623V107.964L68.6033 89.3622V137.772ZM68.6033 86.172L45.138 104.773V53.5823L68.6033 32.4319V86.172ZM22.5938 73.9023L42.638 55.8357V106.755L22.5938 122.645V73.9023ZM71.1033 84.1902V30.1786L101.262 2.9953V60.2831L71.1033 84.1902ZM103.762 58.3013V0.741943L140.198 -32.0994V29.4179L103.762 58.3013ZM142.698 27.4361V-34.3528L179.748 -67.7473V-1.93378L142.698 27.4361ZM182.248 -3.91556V-70.0006L239.32 -121.442V-49.1577L182.248 -3.91556ZM241.82 -51.1395V-123.696L310.587 -185.678V-105.652L241.82 -51.1395ZM241.82 -47.9492L310.587 -102.462V-15.3833L241.82 28.1401V-47.9492ZM241.82 31.0987L310.587 -12.4247V69.6599L241.82 103.985V31.0987ZM241.82 106.779L310.587 72.454V157.518L241.82 183.139V106.779ZM241.82 185.806L310.587 160.186V245.96L241.82 261.702V185.806ZM241.82 264.267L310.587 248.525V336.118L241.82 343.279V264.267ZM241.82 345.792L310.587 338.631V421.868L241.82 419.337V345.792ZM241.82 421.838L310.587 424.37V508.812L241.82 497.761V421.838ZM241.82 500.293L310.587 511.344V595.768L241.82 575.149V500.293ZM241.82 577.759L310.587 598.378V682.203L241.82 652.446V577.759ZM241.82 655.17L310.587 684.927V767.145L241.82 729.301V655.17ZM241.82 732.155L310.587 769.998V851.936L241.82 805.634V732.155ZM241.82 808.648L310.587 854.95V941.245L241.82 883.954V808.648ZM241.82 887.208L310.587 944.499V1030L241.82 962.523V887.208ZM239.32 885.125V960.07L182.248 904.068V837.578L239.32 885.125ZM179.748 835.495V901.615L142.698 865.26V804.628L179.748 835.495ZM140.198 802.546V862.807L103.762 827.055V772.19L140.198 802.546ZM101.262 770.107V824.602L71.1033 795.009V744.982L101.262 770.107ZM101.262 766.854L71.1033 741.728V693.702L101.262 714.008V766.854ZM101.262 710.995L71.1033 690.688V638.205L101.262 654.802V710.995ZM101.262 651.949L71.1033 635.352V581.298L101.262 594.348V651.949ZM101.262 591.624L71.1033 578.574V526.57L101.262 535.613V591.624ZM101.262 533.003L71.1033 523.96V472.859L101.262 477.706V533.003ZM101.262 475.174L71.1033 470.327V415.555L101.262 416.665V475.174ZM101.262 414.163L71.1033 413.053V363.571L101.262 360.43V414.163ZM101.262 357.916L71.1033 361.057V303.349L101.262 296.445V357.916ZM101.262 293.88L71.1033 300.784V249.41L101.262 238.174V293.88ZM101.262 235.506L71.1033 246.742V191.992L101.262 176.938V235.506ZM101.262 174.144L71.1033 189.198V139.148L101.262 120.06V174.144ZM101.262 117.101L71.1033 136.189V87.3805L101.262 63.4733V117.101ZM103.762 115.519V61.4915L140.198 32.6081V92.4583L103.762 115.519ZM142.698 90.876V30.6263L179.748 1.25644V67.4266L142.698 90.876ZM182.248 65.8443V-0.725342L239.32 -45.9675V29.7224L182.248 65.8443ZM182.248 68.803L239.32 32.681V105.233L182.248 133.72V68.803ZM182.248 136.514L239.32 108.027V184.07L182.248 205.333V136.514ZM182.248 208.001L239.32 186.738V262.275L182.248 275.34V208.001ZM182.248 277.905L239.32 264.839V343.539L182.248 349.483V277.905ZM182.248 351.996L239.32 346.053V419.245L182.248 417.144V351.996ZM182.248 419.646L239.32 421.746V497.359L182.248 488.188V419.646ZM182.248 490.72L239.32 499.891V574.399L182.248 557.286V490.72ZM182.248 559.896L239.32 577.009V651.364L182.248 626.668V559.896ZM182.248 629.392L239.32 654.088V727.925L182.248 696.517V629.392ZM182.248 699.371L239.32 730.779V803.951L182.248 765.523V699.371ZM182.248 768.537L239.32 806.965V881.872L182.248 834.324V768.537ZM179.748 766.854V832.241L142.698 801.374V741.908L179.748 766.854ZM140.198 740.225V799.292L103.762 768.936V715.692L140.198 740.225ZM140.198 737.211L103.762 712.678V656.178L140.198 676.23V737.211ZM140.198 673.376L103.762 653.325V595.43L140.198 611.197V673.376ZM140.198 608.473L103.762 592.706V536.362L140.198 547.287V608.473ZM140.198 544.677L103.762 533.752V478.107L140.198 483.963V544.677ZM140.198 481.431L103.762 475.575V416.757L140.198 418.098V481.431ZM140.198 415.596L103.762 414.255V360.17L140.198 356.375V415.596ZM140.198 353.862L103.762 357.656V295.872L140.198 287.531V353.862ZM140.198 284.966L103.762 293.308V237.242L140.198 223.667V284.966ZM140.198 221L103.762 234.575V175.691L140.198 157.504V221ZM140.198 154.709L103.762 172.896V118.478L140.198 95.4169V154.709ZM142.698 153.462V93.8346L179.748 70.3853V134.968L142.698 153.462ZM142.698 156.256L179.748 137.762V206.265L142.698 220.068V156.256ZM142.698 222.736L179.748 208.933V275.912L142.698 284.394V222.736ZM142.698 286.959L179.748 278.477V349.743L142.698 353.601V286.959ZM142.698 356.115L179.748 352.257V417.052L142.698 415.688V356.115ZM142.698 418.19L179.748 419.554V487.786L142.698 481.832V418.19ZM142.698 484.364L179.748 490.318V556.536L142.698 545.427V484.364ZM142.698 548.037L179.748 559.146V625.586L142.698 609.554V548.037ZM142.698 612.278L179.748 628.31V695.141L142.698 674.752V612.278ZM142.698 677.605L179.748 697.995V763.84L142.698 738.894V677.605Z" stroke="black" stroke-opacity="0.15" stroke-width="2.5"/>
</svg>
